<svg width="108" height="90" viewBox="0 0 108 90" fill="none" xmlns="http://www.w3.org/2000/svg">
<path fill-rule="evenodd" clip-rule="evenodd" d="M23.8754 23.9843C23.8754 24.5465 23.9506 25.0645 24.1024 25.5369C24.2474 25.9878 24.4032 26.3506 24.5745 26.6283L29.9376 36.6271C30.4045 37.4941 31.0225 38.1375 31.7891 38.5464C32.5372 38.9453 33.302 39.147 34.078 39.147C34.7101 39.147 35.3407 39.0309 35.9677 38.7999C36.5934 38.5694 37.1554 38.247 37.6515 37.8336C38.1562 37.4131 38.5602 36.8996 38.8616 36.2967C39.1673 35.6855 39.3202 35.0229 39.3202 34.3145C39.3202 33.4369 39.0086 32.4531 38.3966 31.3578L34.4387 25.1432C35.7955 24.4782 36.9639 23.4339 37.9411 22.0177C39.0439 20.4196 39.5932 18.477 39.5932 16.2024C39.5932 14.9345 39.3713 13.6901 38.9282 12.4716C38.4811 11.242 37.7938 10.1472 36.8689 9.19045C35.9427 8.23236 34.7665 7.46143 33.3442 6.87673C31.9191 6.29088 30.2367 6 28.2984 6H18.7416C15.6291 6 14 7.69842 14 10.9235V34.0415C14 37.2708 15.6942 38.965 18.9236 38.965C22.1258 38.965 23.8017 37.2373 23.8017 33.9505V15.3919H28.1164C28.9671 15.3919 29.5729 15.5368 29.9355 15.8027C30.2565 16.0381 30.4287 16.4742 30.4287 17.1581C30.4287 17.9502 30.2429 18.4952 29.8934 18.8214C29.5293 19.1612 29.0362 19.3338 28.3894 19.3338H27.7523C26.4012 19.3338 25.3877 19.7568 24.7608 20.6165C24.165 21.4336 23.8754 22.5589 23.8754 23.9843ZM41.8958 22.4622C41.8958 31.554 49.2663 38.9244 58.3583 38.9244C67.4504 38.9244 74.8209 31.554 74.8209 22.4622C74.8209 13.3704 67.4504 6 58.3583 6C49.2663 6 41.8958 13.3704 41.8958 22.4622ZM58.3583 37.997C66.9381 37.997 73.8934 31.0418 73.8934 22.4622C73.8934 13.8826 66.9381 6.92745 58.3583 6.92745C49.7786 6.92745 42.8233 13.8826 42.8233 22.4622C42.8233 31.0418 49.7786 37.997 58.3583 37.997ZM25.6795 55.6185C26.0443 64.3965 33.2776 71.3851 42.1277 71.3851C50.9777 71.3851 58.211 64.3965 58.5902 55.6185V45.6484C58.5902 42.4471 55.995 39.8519 52.7935 39.8519C49.5921 39.8519 46.9969 42.4471 46.9969 45.6484L46.9405 54.2273L46.9801 54.7276C46.9912 54.8691 46.9969 55.0115 46.9969 55.1548C46.9969 57.9763 44.8123 60.2557 42.1277 60.2557C39.443 60.2557 37.2585 57.9763 37.2585 55.1548C37.2585 55.0115 37.2641 54.8691 37.2753 54.7276L37.2585 54.2273V45.6484C37.2585 42.4471 34.6632 39.8519 31.4618 39.8519C28.2604 39.8519 25.6651 42.4471 25.6651 45.6484L25.6795 55.6185ZM26.5942 55.1482C26.7147 63.6326 33.6318 70.4577 42.1277 70.4577C50.6235 70.4577 57.5406 63.6326 57.6611 55.1482L57.6627 55.0356V45.6484C57.6627 42.9593 55.4827 40.7793 52.7935 40.7793C50.1044 40.7793 47.9243 42.9593 47.9243 45.6484V55.1548C47.9243 58.4799 45.3336 61.1832 42.1277 61.1832C38.9217 61.1832 36.331 58.4799 36.331 55.1548V45.6484C36.331 42.9593 34.151 40.7793 31.4618 40.7793C28.7726 40.7793 26.5926 42.9593 26.5926 45.6484V55.0356L26.5942 55.1482ZM15.2121 57.2361C15.4495 57.3547 15.699 57.4154 15.9557 57.4154H23.3175C23.8831 57.4154 24.3538 57.2357 24.6978 56.8718C25.0352 56.5149 25.2014 56.0452 25.2014 55.4881V53.894C25.2014 52.9904 25.0463 52.1912 24.7324 51.4997C24.4215 50.8145 24.0045 50.2356 23.4824 49.7667C22.9639 49.3012 22.3751 48.9511 21.719 48.7183C21.0702 48.4881 20.3995 48.3728 19.709 48.3728C19.0178 48.3728 18.3348 48.4932 17.6621 48.7331C16.9813 48.9758 16.3751 49.3385 15.8465 49.8195C15.3153 50.3029 14.8871 50.9054 14.5623 51.6233C14.2341 52.3484 14.0718 53.1837 14.0718 54.1259V55.4881C14.0718 55.7284 14.1246 55.9662 14.2277 56.1981C14.3258 56.419 14.4582 56.6191 14.6236 56.7967C14.7919 56.9775 14.9888 57.1244 15.2121 57.2361ZM23.3175 56.488H15.9557C15.8452 56.488 15.7373 56.4617 15.6269 56.4065C15.5023 56.3442 15.3949 56.2641 15.3024 56.1647C15.2069 56.0622 15.1316 55.9483 15.0752 55.8214C15.0237 55.7055 14.9992 55.5955 14.9992 55.4881V54.1259C14.9992 53.3098 15.1364 52.6042 15.4072 52.0057C15.6813 51.4 16.0357 50.9013 16.4707 50.5055C16.9082 50.1073 17.4081 49.8083 17.9736 49.6066C18.5472 49.4021 19.125 49.3003 19.709 49.3003C20.2939 49.3003 20.8597 49.3975 21.4089 49.5924C21.9508 49.7846 22.4344 50.0722 22.8627 50.4568C23.2874 50.8382 23.6288 51.3122 23.8879 51.883C24.144 52.4474 24.2739 53.1166 24.2739 53.894V55.4881C24.2739 55.8197 24.1889 56.0601 24.0239 56.2346C23.8655 56.4021 23.6406 56.488 23.3175 56.488ZM22.3755 53.8795V54.6041H16.9411V53.894C16.9411 53.4471 17.0155 53.0466 17.1677 52.6953C17.3187 52.3468 17.5209 52.0554 17.7748 51.8257C18.0226 51.6015 18.3046 51.4323 18.6178 51.32C18.924 51.2103 19.2402 51.1552 19.5641 51.1552C19.9051 51.1552 20.2427 51.2119 20.5752 51.3246C20.9165 51.4403 21.2204 51.6127 21.4836 51.8409C21.7507 52.0723 21.9657 52.3609 22.1278 52.7025C22.2938 53.0523 22.3755 53.4461 22.3755 53.8795ZM21.2899 53.1002C21.3702 53.2693 21.4204 53.4607 21.4394 53.6767H17.8767C17.8947 53.4435 17.9426 53.2397 18.0187 53.064C18.1189 52.8328 18.2452 52.6508 18.3971 52.5134C18.555 52.3705 18.732 52.2643 18.9308 52.1931C19.1367 52.1193 19.347 52.0826 19.5641 52.0826C19.8028 52.0826 20.04 52.1225 20.2775 52.203C20.5063 52.2805 20.7048 52.3931 20.8762 52.5417C21.0439 52.687 21.1816 52.8718 21.2899 53.1002ZM75.0709 62.7954L81.4651 69.1895C83.3667 71.091 86.4497 71.091 88.3512 69.1895C90.2528 67.288 90.2528 64.2051 88.3512 62.3036L68.6767 42.6294C66.7751 40.7279 63.6921 40.7279 61.7906 42.6294C59.889 44.5309 59.889 47.6138 61.7906 49.5154L68.1848 55.9095L61.8605 62.2336C59.9589 64.1351 59.9589 67.2181 61.8605 69.1196C63.762 71.0211 66.845 71.0211 68.7466 69.1196L75.0709 62.7954ZM61.2047 69.7754C63.4684 72.0391 67.1387 72.0391 69.4024 69.7754L75.0709 64.107L80.8093 69.8453C83.0731 72.109 86.7433 72.109 89.007 69.8453C91.2708 67.5816 91.2708 63.9114 89.007 61.6477L69.3325 41.9736C67.0687 39.7099 63.3985 39.7099 61.1347 41.9736C58.871 44.2373 58.871 47.9075 61.1347 50.1712L66.8732 55.9095L61.2047 61.5778C58.9409 63.8415 58.9409 67.5117 61.2047 69.7754ZM24.2739 46.5034V41.7213C24.2739 41.4042 24.1858 41.1869 24.0112 41.0334C23.8165 40.8622 23.5923 40.7793 23.3175 40.7793C23.0437 40.7793 22.8232 40.8614 22.634 41.0307C22.4626 41.1841 22.3755 41.4026 22.3755 41.7213V45.5615H20.4626V42.2864C20.4626 42.0075 20.3862 41.8186 20.2346 41.6842C20.0638 41.5327 19.8715 41.4604 19.6366 41.4604C19.4016 41.4604 19.2093 41.5327 19.0385 41.6842C18.887 41.8186 18.8105 42.0075 18.8105 42.2864V45.5615H16.9121V41.7213C16.9121 41.4042 16.824 41.1869 16.6494 41.0334C16.4547 40.8622 16.2305 40.7793 15.9557 40.7793C15.6809 40.7793 15.4567 40.8622 15.262 41.0334C15.0873 41.1869 14.9992 41.4042 14.9992 41.7213V46.5034C14.9992 47.1726 15.2629 47.4309 15.9557 47.4309H23.3175C24.0103 47.4309 24.2739 47.1726 24.2739 46.5034ZM22.0156 40.3395C21.6363 40.6789 21.448 41.1512 21.448 41.7213V44.634H21.3901V42.2864C21.3901 41.7539 21.2105 41.31 20.85 40.9903C20.5087 40.6877 20.0973 40.533 19.6366 40.533C19.1759 40.533 18.7644 40.6877 18.4232 40.9903C18.0627 41.31 17.8831 41.7539 17.8831 42.2864V44.634H17.8396V41.7213C17.8396 41.1496 17.6475 40.676 17.2618 40.3369C16.8962 40.0154 16.4538 39.8519 15.9557 39.8519C15.4576 39.8519 15.0152 40.0154 14.6495 40.3369C14.2638 40.676 14.0718 41.1496 14.0718 41.7213V46.5034C14.0718 47.6891 14.7549 48.3583 15.9557 48.3583H23.3175C24.5182 48.3583 25.2014 47.6891 25.2014 46.5034V41.7213C25.2014 41.1496 25.0093 40.676 24.6236 40.3369C24.2579 40.0154 23.8155 39.8519 23.3175 39.8519C22.8183 39.8519 22.377 40.0161 22.0156 40.3395ZM83.4 52.3724C86.0892 52.3724 88.2692 50.1925 88.2692 47.5033C88.2692 44.8142 86.0892 42.6342 83.4 42.6342C80.7108 42.6342 78.5308 44.8142 78.5308 47.5033C78.5308 50.1925 80.7108 52.3724 83.4 52.3724ZM77.6033 47.5033C77.6033 50.7047 80.1986 53.2999 83.4 53.2999C86.6014 53.2999 89.1966 50.7047 89.1966 47.5033C89.1966 44.302 86.6014 41.7068 83.4 41.7068C80.1986 41.7068 77.6033 44.302 77.6033 47.5033ZM58.3583 28.7225C55.1524 28.7225 52.5617 26.0192 52.5617 22.6941C52.5617 19.369 55.1524 16.6657 58.3583 16.6657C61.5643 16.6657 64.155 19.369 64.155 22.6941C64.155 26.0192 61.5643 28.7225 58.3583 28.7225ZM63.2276 22.6941C63.2276 25.5156 61.043 27.795 58.3583 27.795C55.6737 27.795 53.4891 25.5156 53.4891 22.6941C53.4891 19.8726 55.6737 17.5931 58.3583 17.5931C61.043 17.5931 63.2276 19.8726 63.2276 22.6941ZM85.1452 7.74521C82.456 7.74521 80.276 9.92518 80.276 12.6143V33.9456C80.276 36.6348 82.456 38.8147 85.1452 38.8147C87.8344 38.8147 90.0144 36.6348 90.0144 33.9456V12.6143C90.0144 9.92518 87.8344 7.74521 85.1452 7.74521ZM90.9419 12.6143C90.9419 9.41296 88.3466 6.81776 85.1452 6.81776C81.9438 6.81776 79.3485 9.41296 79.3485 12.6143V33.9456C79.3485 37.147 81.9438 39.7422 85.1452 39.7422C88.3466 39.7422 90.9419 37.147 90.9419 33.9456V12.6143ZM25.3695 26.1504L30.7546 36.188C31.1376 36.8993 31.627 37.4088 32.2256 37.728C32.8428 38.0572 33.4585 38.2196 34.078 38.2196C34.5988 38.2196 35.1211 38.1234 35.647 37.9296C36.1743 37.7354 36.6438 37.4661 37.0578 37.1211C37.4633 36.7831 37.7874 36.3713 38.0321 35.882C38.2726 35.401 38.3927 34.8804 38.3927 34.3145C38.3927 33.6146 38.1278 32.7781 37.6007 31.8332L33.0699 24.7205L33.5842 24.5106C34.9841 23.9392 36.1805 22.9362 37.1778 21.491C38.1684 20.0553 38.6658 18.2966 38.6658 16.2024C38.6658 15.0432 38.463 13.9061 38.0566 12.7885C37.6542 11.682 37.0369 10.6986 36.2021 9.83505C35.3686 8.97282 34.2998 8.27234 32.9915 7.73451C31.686 7.19783 30.1222 6.92745 28.2984 6.92745H18.7416C16.1502 6.92745 14.9275 8.20218 14.9275 10.9235V34.0415C14.9275 36.7586 16.2065 38.0375 18.9236 38.0375C21.6072 38.0375 22.8742 36.7313 22.8742 33.9505V14.4645H28.1164C29.1467 14.4645 29.9365 14.6533 30.484 15.0548C31.0732 15.4869 31.3561 16.2036 31.3561 17.1581C31.3561 18.1862 31.0869 18.9762 30.5262 19.4994C29.9801 20.0091 29.2596 20.2613 28.3894 20.2613H27.7523C26.6762 20.2613 25.9453 20.5663 25.5102 21.1629C25.0442 21.8021 24.8029 22.7398 24.8029 23.9843C24.8029 24.4535 24.8642 24.876 24.9854 25.2531C25.1112 25.6443 25.2408 25.9444 25.3695 26.1504Z" fill="url(#paint0_linear_316_284)"/>
<path fill-rule="evenodd" clip-rule="evenodd" d="M26.0772 25.9247C26.2137 26.3493 26.3578 26.6829 26.5094 26.9255L31.8779 36.9338C32.3025 37.7223 32.856 38.2985 33.5385 38.6625C34.2209 39.0264 34.9109 39.2084 35.6085 39.2084C36.1848 39.2084 36.761 39.1022 37.3373 38.8899C37.9136 38.6776 38.4292 38.3819 38.8842 38.0028C39.3391 37.6237 39.7031 37.1612 39.9761 36.6153C40.249 36.0694 40.3855 35.478 40.3855 34.8411C40.3855 34.0526 40.0974 33.1428 39.5211 32.1116L35.29 25.4698C36.7762 24.8632 38.0425 23.8017 39.0889 22.2853C40.1353 20.7689 40.6585 18.9189 40.6585 16.7353C40.6585 15.5222 40.4462 14.3318 40.0216 13.1642C39.5969 11.9965 38.9448 10.9578 38.0653 10.048C37.1857 9.13812 36.0635 8.40267 34.6986 7.8416C33.3337 7.28053 31.7111 7 29.8306 7H20.2766C17.4255 7 16 8.48606 16 11.4582V34.5682C16 37.5403 17.4862 39.0264 20.4585 39.0264C23.4006 39.0264 24.8716 37.51 24.8716 34.4772V15.4615H29.6486C30.5889 15.4615 31.2864 15.6283 31.7414 15.9619C32.1964 16.2955 32.4238 16.8718 32.4238 17.6906C32.4238 18.6005 32.1964 19.2677 31.7414 19.6923C31.2864 20.1169 30.6798 20.3292 29.9216 20.3292H29.2846C28.0714 20.3292 27.1994 20.6931 26.6687 21.421C26.1379 22.1489 25.8725 23.18 25.8725 24.5144C25.8725 25.03 25.9407 25.5001 26.0772 25.9247ZM75.8757 22.9929C75.8757 31.8256 68.7149 38.9859 59.8817 38.9859C51.0484 38.9859 43.8876 31.8256 43.8876 22.9929C43.8876 14.1603 51.0484 7 59.8817 7C68.7149 7 75.8757 14.1603 75.8757 22.9929ZM26.2709 42.2453C26.2709 41.801 26.1308 41.4558 25.8507 41.2095C25.5706 40.9632 25.2374 40.8401 24.8511 40.8401C24.4648 40.8401 24.134 40.9632 23.8587 41.2095C23.5835 41.4558 23.4458 41.801 23.4458 42.2453V45.6206H22.4607V42.8103C22.4607 42.4046 22.3327 42.0884 22.0768 41.8614C21.8208 41.6344 21.519 41.521 21.1713 41.521C20.8236 41.521 20.5218 41.6344 20.2658 41.8614C20.0099 42.0884 19.8819 42.4046 19.8819 42.8103V45.6206H18.9113V42.2453C18.9113 41.801 18.7712 41.4558 18.4911 41.2095C18.211 40.9632 17.8778 40.8401 17.4915 40.8401C17.1052 40.8401 16.772 40.9632 16.4919 41.2095C16.2118 41.4558 16.0717 41.801 16.0717 42.2453V47.0258C16.0717 47.9529 16.545 48.4165 17.4915 48.4165H24.8511C25.7976 48.4165 26.2709 47.9529 26.2709 47.0258V42.2453ZM26.2709 54.4138C26.2709 53.5736 26.1284 52.8396 25.8435 52.2119C25.5586 51.5842 25.1795 51.0578 24.7062 50.6329C24.233 50.208 23.6969 49.8893 23.0981 49.6768C22.4993 49.4643 21.8812 49.3581 21.2437 49.3581C20.6063 49.3581 19.9761 49.4692 19.3531 49.6913C18.7302 49.9134 18.1772 50.2442 17.6943 50.6836C17.2114 51.123 16.8203 51.6735 16.5208 52.335C16.2214 52.9966 16.0717 53.7668 16.0717 54.6456V56.0073C16.0717 56.1812 16.1104 56.355 16.1876 56.5288C16.2649 56.7027 16.3687 56.8596 16.4991 56.9996C16.6295 57.1397 16.7816 57.2531 16.9555 57.3401C17.1293 57.427 17.308 57.4704 17.4915 57.4704H24.8511C25.2954 57.4704 25.6431 57.3377 25.8942 57.0721C26.1453 56.8065 26.2709 56.4516 26.2709 56.0073V55.2106V54.4138ZM38.3244 46.1711V55.2106H38.3426C38.3306 55.3634 38.3244 55.518 38.3244 55.6741C38.3244 58.7464 40.7113 61.2369 43.6558 61.2369C46.6002 61.2369 48.9871 58.7464 48.9871 55.6741C48.9871 55.518 48.981 55.3634 48.9689 55.2106H48.9871V46.1711C48.9871 43.2269 51.3741 40.8401 54.3185 40.8401C57.2629 40.8401 59.6499 43.2269 59.6499 46.1711V55.4424V55.6741H59.6482C59.5242 64.3999 52.4117 71.4353 43.6558 71.4353C34.8999 71.4353 27.7873 64.3999 27.6633 55.6741H27.6617V55.4424V46.1711C27.6617 43.2269 30.0486 40.8401 32.993 40.8401C35.9375 40.8401 38.3244 43.2269 38.3244 46.1711ZM23.4458 54.3993C23.4458 54.0323 23.3782 53.7064 23.243 53.4215C23.1078 53.1366 22.9315 52.9 22.7142 52.7117C22.4969 52.5234 22.2458 52.3809 21.9609 52.2843C21.6759 52.1878 21.3886 52.1395 21.0989 52.1395C20.8284 52.1395 20.5653 52.1853 20.3093 52.2771C20.0534 52.3688 19.824 52.5065 19.6212 52.6899C19.4183 52.8734 19.2541 53.1101 19.1286 53.3998C19.003 53.6895 18.9402 54.0275 18.9402 54.4138V54.6601H23.4458V54.3993ZM76.5893 63.9677L82.6538 70.0318C84.7358 72.1137 88.1115 72.1137 90.1935 70.0318C92.2755 67.9499 92.2755 64.5745 90.1935 62.4926L70.5247 42.8253C68.4427 40.7434 65.0671 40.7434 62.9851 42.8253C60.903 44.9072 60.903 48.2826 62.9851 50.3645L69.0496 56.4285L63.0549 62.4227C60.9729 64.5046 60.9729 67.88 63.0549 69.9619C65.137 72.0438 68.5126 72.0438 70.5946 69.9619L76.5893 63.9677ZM90.2473 48.0253C90.2473 50.9696 87.8603 53.3563 84.9159 53.3563C81.9715 53.3563 79.5845 50.9696 79.5845 48.0253C79.5845 45.0811 81.9715 42.6944 84.9159 42.6944C87.8603 42.6944 90.2473 45.0811 90.2473 48.0253ZM59.8817 28.7875C62.8261 28.7875 65.213 26.2969 65.213 23.2247C65.213 20.1525 62.8261 17.662 59.8817 17.662C56.9372 17.662 54.5503 20.1525 54.5503 23.2247C54.5503 26.2969 56.9372 28.7875 59.8817 28.7875ZM81.3292 13.1485C81.3292 10.2042 83.7162 7.81747 86.6606 7.81747C89.605 7.81747 91.992 10.2042 91.992 13.1485V34.4724C91.992 37.4166 89.605 39.8033 86.6606 39.8033C83.7162 39.8033 81.3292 37.4166 81.3292 34.4724V13.1485Z" fill="url(#paint1_linear_316_284)"/>
<path d="M14.791 71.7877C14.791 70.2538 16.0378 69.0103 17.5759 69.0103H90.2146C91.7526 69.0103 92.9994 70.2538 92.9994 71.7877V82.0644C92.9994 83.5984 91.7526 84.8419 90.2146 84.8419H17.5759C16.0378 84.8419 14.791 83.5984 14.791 82.0644V71.7877Z" fill="url(#paint2_linear_316_284)"/>
<path fill-rule="evenodd" clip-rule="evenodd" d="M90.2146 69.9361H17.5759C16.5505 69.9361 15.7193 70.7651 15.7193 71.7877V82.0644C15.7193 83.0871 16.5505 83.9161 17.5759 83.9161H90.2146C91.2399 83.9161 92.0711 83.0871 92.0711 82.0644V71.7877C92.0711 70.7651 91.2399 69.9361 90.2146 69.9361ZM17.5759 69.0103C16.0378 69.0103 14.791 70.2538 14.791 71.7877V82.0644C14.791 83.5984 16.0378 84.8419 17.5759 84.8419H90.2146C91.7526 84.8419 92.9994 83.5984 92.9994 82.0644V71.7877C92.9994 70.2538 91.7526 69.0103 90.2146 69.0103H17.5759Z" fill="white"/>
<path d="M83.9053 79.4773C83.7406 79.2715 83.6582 79.0882 83.6582 78.9275C83.6582 78.7603 83.7944 78.5416 84.0669 78.2715C84.2253 78.1172 84.3933 78.04 84.5707 78.04C84.7481 78.04 84.9952 78.2008 85.3121 78.5223C85.4008 78.6316 85.5275 78.7378 85.6923 78.8406C85.857 78.9371 86.0091 78.9853 86.1485 78.9853C86.7378 78.9853 87.0325 78.741 87.0325 78.2522C87.0325 78.1043 86.9501 77.9822 86.7853 77.8857C86.6269 77.7828 86.4273 77.7089 86.1865 77.6639C85.9457 77.6188 85.6859 77.5481 85.4071 77.4516C85.1283 77.3488 84.8685 77.2298 84.6277 77.0948C84.3869 76.9597 84.1841 76.7475 84.0194 76.4581C83.861 76.1623 83.7818 75.8086 83.7818 75.3971C83.7818 74.8312 83.9877 74.3393 84.3996 73.9213C84.8178 73.4969 85.3849 73.2847 86.101 73.2847C86.4812 73.2847 86.8265 73.3361 87.137 73.439C87.4538 73.5355 87.6725 73.6351 87.7929 73.738L88.0305 73.9213C88.2269 74.1078 88.3251 74.2653 88.3251 74.3939C88.3251 74.5225 88.2491 74.6994 88.097 74.9245C87.8816 75.246 87.6598 75.4067 87.4317 75.4067C87.2986 75.4067 87.1338 75.3424 86.9374 75.2138C86.9184 75.201 86.8804 75.1688 86.8233 75.1174C86.7727 75.0659 86.7251 75.0241 86.6808 74.992C86.5477 74.9084 86.3766 74.8666 86.1675 74.8666C85.9647 74.8666 85.7936 74.918 85.6542 75.0209C85.5212 75.1174 85.4546 75.2556 85.4546 75.4357C85.4546 75.6093 85.5338 75.7508 85.6923 75.8601C85.857 75.9694 86.0598 76.0434 86.3006 76.0819C86.5414 76.1205 86.8043 76.1816 87.0895 76.2652C87.3746 76.3424 87.6376 76.4388 87.8784 76.5546C88.1192 76.6703 88.3188 76.8729 88.4772 77.1623C88.642 77.4452 88.7243 77.7957 88.7243 78.2137C88.7243 78.6316 88.642 79.0014 88.4772 79.3229C88.3125 79.638 88.097 79.8824 87.8309 80.056C87.3176 80.3968 86.7695 80.5672 86.1865 80.5672C85.8887 80.5672 85.6067 80.5319 85.3406 80.4611C85.0744 80.384 84.859 80.2907 84.6942 80.1814C84.3584 79.9756 84.1239 79.7763 83.9909 79.5834L83.9053 79.4773Z" fill="white"/>
<path d="M78.3663 79.4773C78.2015 79.2715 78.1191 79.0882 78.1191 78.9275C78.1191 78.7603 78.2554 78.5416 78.5279 78.2715C78.6863 78.1172 78.8542 78.04 79.0316 78.04C79.209 78.04 79.4562 78.2008 79.773 78.5223C79.8617 78.6316 79.9884 78.7378 80.1532 78.8406C80.3179 78.9371 80.47 78.9853 80.6094 78.9853C81.1987 78.9853 81.4934 78.741 81.4934 78.2522C81.4934 78.1043 81.411 77.9822 81.2463 77.8857C81.0878 77.7828 80.8882 77.7089 80.6475 77.6639C80.4067 77.6188 80.1469 77.5481 79.8681 77.4516C79.5892 77.3488 79.3294 77.2298 79.0886 77.0948C78.8479 76.9597 78.6451 76.7475 78.4803 76.4581C78.3219 76.1623 78.2427 75.8086 78.2427 75.3971C78.2427 74.8312 78.4486 74.3393 78.8605 73.9213C79.2787 73.4969 79.8459 73.2847 80.5619 73.2847C80.9421 73.2847 81.2875 73.3361 81.5979 73.439C81.9148 73.5355 82.1334 73.6351 82.2538 73.738L82.4914 73.9213C82.6878 74.1078 82.7861 74.2653 82.7861 74.3939C82.7861 74.5225 82.71 74.6994 82.5579 74.9245C82.3425 75.246 82.1207 75.4067 81.8926 75.4067C81.7595 75.4067 81.5948 75.3424 81.3983 75.2138C81.3793 75.201 81.3413 75.1688 81.2843 75.1174C81.2336 75.0659 81.1861 75.0241 81.1417 74.992C81.0086 74.9084 80.8376 74.8666 80.6284 74.8666C80.4257 74.8666 80.2546 74.918 80.1152 75.0209C79.9821 75.1174 79.9156 75.2556 79.9156 75.4357C79.9156 75.6093 79.9948 75.7508 80.1532 75.8601C80.3179 75.9694 80.5207 76.0434 80.7615 76.0819C81.0023 76.1205 81.2653 76.1816 81.5504 76.2652C81.8356 76.3424 82.0985 76.4388 82.3393 76.5546C82.5801 76.6703 82.7797 76.8729 82.9381 77.1623C83.1029 77.4452 83.1853 77.7957 83.1853 78.2137C83.1853 78.6316 83.1029 79.0014 82.9381 79.3229C82.7734 79.638 82.5579 79.8824 82.2918 80.056C81.7785 80.3968 81.2304 80.5672 80.6475 80.5672C80.3496 80.5672 80.0677 80.5319 79.8015 80.4611C79.5354 80.384 79.3199 80.2907 79.1552 80.1814C78.8193 79.9756 78.5849 79.7763 78.4518 79.5834L78.3663 79.4773Z" fill="white"/>
<path d="M75.1783 73.9415L77.7954 79.2918C77.9053 79.5092 77.9602 79.6722 77.9602 79.7809C77.9602 80.011 77.7728 80.2187 77.398 80.4041C77.1783 80.5128 77.0038 80.5671 76.8746 80.5671C76.7518 80.5671 76.6484 80.5384 76.5644 80.4808C76.4869 80.4233 76.4287 80.3626 76.3899 80.2986C76.3576 80.2347 76.3092 80.1388 76.2446 80.011L75.7405 78.9754H73.0556L72.5516 80.011C72.487 80.1388 72.4353 80.2315 72.3965 80.2891C72.3642 80.3466 72.306 80.4073 72.222 80.4712C72.1445 80.5288 72.0411 80.5575 71.9118 80.5575C71.7891 80.5575 71.6178 80.5032 71.3981 80.3945C71.0233 80.2155 70.8359 80.011 70.8359 79.7809C70.8359 79.6722 70.8909 79.5092 71.0007 79.2918L73.6178 73.9319C73.6889 73.7849 73.7955 73.6666 73.9376 73.5771C74.0863 73.4876 74.2414 73.4429 74.4029 73.4429C74.7518 73.4429 75.0103 73.6091 75.1783 73.9415ZM74.3932 76.2427L73.7535 77.5563H75.0426L74.3932 76.2427Z" fill="white"/>
<path d="M67.171 79.0023H69.8108C70.0243 79.0023 70.1796 79.0277 70.2766 79.0783C70.3737 79.1227 70.4384 79.1955 70.4707 79.2969C70.5031 79.3983 70.5193 79.5345 70.5193 79.7056C70.5193 79.8703 70.5031 80.0033 70.4707 80.1047C70.4384 80.2061 70.3834 80.2758 70.3057 80.3138C70.1828 80.3771 70.0146 80.4088 69.8011 80.4088H66.3072C65.8543 80.4088 65.589 80.2884 65.5114 80.0477C65.4725 79.9463 65.4531 79.7848 65.4531 79.563V74.2792C65.4531 74.1334 65.4564 74.0257 65.4628 73.9561C65.4758 73.88 65.5081 73.7945 65.5599 73.6995C65.6505 73.5284 65.9028 73.4429 66.3169 73.4429C66.7698 73.4429 67.0383 73.5601 67.1224 73.7945C67.1548 73.9022 67.171 74.0669 67.171 74.2887V79.0023Z" fill="white"/>
<path d="M63.3287 78.6058L63.5008 78.4796C63.7176 78.3501 63.8707 78.2854 63.9599 78.2854C64.1576 78.2854 64.3712 78.4666 64.6007 78.8291C64.741 79.0557 64.8112 79.237 64.8112 79.3729C64.8112 79.5088 64.7665 79.6221 64.6773 79.7127C64.5944 79.8034 64.4955 79.8843 64.3808 79.9555C64.266 80.0267 64.1544 80.0947 64.046 80.1594C63.944 80.2241 63.7304 80.3083 63.4052 80.4119C63.08 80.5154 62.7644 80.5672 62.4583 80.5672C62.1586 80.5672 61.8526 80.5284 61.5401 80.4507C61.2341 80.3666 60.9152 80.2306 60.5837 80.0429C60.2585 79.8487 59.9652 79.6156 59.7037 79.3438C59.4423 79.0654 59.2255 78.7126 59.0534 78.2854C58.8876 77.8516 58.8047 77.3823 58.8047 76.8774C58.8047 76.3725 58.8876 75.9161 59.0534 75.5083C59.2191 75.094 59.4296 74.7541 59.6846 74.4887C59.946 74.2168 60.2425 73.9903 60.5741 73.809C61.199 73.4594 61.827 73.2847 62.4583 73.2847C62.758 73.2847 63.0609 73.3332 63.3669 73.4303C63.6794 73.5209 63.9153 73.6148 64.0747 73.7119L64.3042 73.8479C64.419 73.9191 64.5083 73.9773 64.572 74.0226C64.7378 74.1586 64.8207 74.3139 64.8207 74.4887C64.8207 74.657 64.7538 74.835 64.6199 75.0228C64.3712 75.3723 64.148 75.5471 63.9504 75.5471C63.8356 75.5471 63.673 75.4759 63.4626 75.3335C63.1948 75.1134 62.8377 75.0034 62.3914 75.0034C61.9769 75.0034 61.5688 75.149 61.1671 75.4403C60.9758 75.5827 60.8164 75.7834 60.6889 76.0423C60.5614 76.3013 60.4976 76.5958 60.4976 76.926C60.4976 77.2496 60.5614 77.5409 60.6889 77.7999C60.8164 78.0588 60.979 78.2627 61.1767 78.4116C61.5656 78.6964 61.9705 78.8388 62.3914 78.8388C62.589 78.8388 62.7739 78.8129 62.9461 78.7612C63.1246 78.7094 63.2522 78.6576 63.3287 78.6058Z" fill="white"/>
<path d="M58.3421 79.3139C58.4383 79.5452 58.4864 79.7123 58.4864 79.8152C58.4864 80.0594 58.2876 80.2651 57.89 80.4322C57.6847 80.5221 57.518 80.5671 57.3897 80.5671C57.2679 80.5671 57.1653 80.5382 57.0819 80.4804C57.0049 80.4161 56.9472 80.3518 56.9087 80.2875C56.8446 80.1654 56.5945 79.5838 56.1584 78.5426L55.8602 78.5619H54.648V79.6513C54.648 79.7991 54.6416 79.9116 54.6288 79.9887C54.6224 80.0594 54.5935 80.1429 54.5422 80.2393C54.4524 80.4129 54.2023 80.4996 53.7919 80.4996C53.3429 80.4996 53.08 80.3807 53.003 80.1429C52.9646 80.0337 52.9453 79.8666 52.9453 79.6416V74.2912C52.9453 74.1434 52.9485 74.0341 52.9549 73.9635C52.9678 73.8863 52.9998 73.7996 53.0511 73.7032C53.1409 73.5296 53.391 73.4429 53.8015 73.4429H55.8794C56.4438 73.4429 56.9921 73.6485 57.5244 74.0599C57.7809 74.2591 57.9926 74.529 58.1593 74.8696C58.3261 75.2103 58.4094 75.5895 58.4094 76.0072C58.4094 76.7335 58.1689 77.3312 57.6879 77.8003C57.829 78.141 58.0471 78.6455 58.3421 79.3139ZM54.648 76.8556H55.8794C56.0654 76.8556 56.2514 76.7849 56.4373 76.6435C56.6233 76.5021 56.7163 76.29 56.7163 76.0072C56.7163 75.7244 56.6233 75.5123 56.4373 75.3709C56.2514 75.2231 56.059 75.1492 55.8602 75.1492H54.648V76.8556Z" fill="white"/>
<path d="M48.5924 78.7267H51.4858C51.6298 78.7267 51.7363 78.7331 51.8052 78.7457C51.8803 78.7521 51.9649 78.7806 52.0588 78.8313C52.2279 78.9199 52.3125 79.167 52.3125 79.5725C52.3125 80.016 52.1966 80.2758 51.9649 80.3518C51.8584 80.3898 51.6956 80.4088 51.4764 80.4088H47.7564C47.318 80.4088 47.0612 80.2884 46.9861 80.0477C46.9485 79.9463 46.9297 79.7848 46.9297 79.563V74.2792C46.9297 73.9561 46.9892 73.7375 47.1082 73.6234C47.2272 73.5031 47.4526 73.4429 47.7845 73.4429H51.4858C51.6298 73.4429 51.7363 73.4492 51.8052 73.4619C51.8803 73.4682 51.9649 73.4967 52.0588 73.5474C52.2279 73.6361 52.3125 73.8832 52.3125 74.2887C52.3125 74.7322 52.1966 74.9919 51.9649 75.0679C51.8584 75.106 51.6956 75.125 51.4764 75.125H48.5924V76.0848H50.4524C50.5965 76.0848 50.7029 76.0911 50.7718 76.1038C50.847 76.1101 50.9315 76.1386 51.0255 76.1893C51.1946 76.278 51.2791 76.5251 51.2791 76.9306C51.2791 77.3741 51.1601 77.6338 50.9221 77.7099C50.8157 77.7479 50.6528 77.7669 50.4337 77.7669H48.5924V78.7267Z" fill="white"/>
<path d="M40.3389 73.4429H45.6128C45.8152 73.4429 45.9638 73.4682 46.0586 73.5188C46.1535 73.5631 46.2167 73.6358 46.2484 73.7371C46.28 73.8383 46.2958 73.9712 46.2958 74.1357C46.2958 74.3002 46.28 74.433 46.2484 74.5343C46.2167 74.6292 46.163 74.6956 46.0871 74.7336C45.9733 74.7905 45.812 74.819 45.6033 74.819H43.7916V79.5926C43.7916 79.7381 43.7853 79.8457 43.7727 79.9153C43.7663 79.9849 43.7379 80.0671 43.6873 80.1621C43.643 80.2506 43.5608 80.3139 43.4407 80.3519C43.3205 80.3898 43.1624 80.4088 42.9664 80.4088C42.7704 80.4088 42.6123 80.3898 42.4921 80.3519C42.3783 80.3139 42.2961 80.2506 42.2455 80.1621C42.2012 80.0671 42.1728 79.9849 42.1601 79.9153C42.1538 79.8394 42.1506 79.7287 42.1506 79.5831V74.819H40.3294C40.1271 74.819 39.9785 74.7968 39.8836 74.7525C39.7888 74.7019 39.7255 74.626 39.6939 74.5248C39.6623 74.4235 39.6465 74.2907 39.6465 74.1262C39.6465 73.9617 39.6623 73.832 39.6939 73.7371C39.7255 73.6358 39.7793 73.5662 39.8552 73.5283C39.969 73.4713 40.1302 73.4429 40.3389 73.4429Z" fill="white"/>
<path d="M34.8292 79.4773C34.6644 79.2715 34.582 79.0882 34.582 78.9275C34.582 78.7603 34.7183 78.5416 34.9907 78.2715C35.1492 78.1172 35.3171 78.04 35.4945 78.04C35.6719 78.04 35.9191 78.2008 36.2359 78.5223C36.3246 78.6316 36.4513 78.7378 36.6161 78.8406C36.7808 78.9371 36.9329 78.9853 37.0723 78.9853C37.6616 78.9853 37.9563 78.741 37.9563 78.2522C37.9563 78.1043 37.8739 77.9822 37.7092 77.8857C37.5507 77.7828 37.3511 77.7089 37.1103 77.6639C36.8696 77.6188 36.6098 77.5481 36.3309 77.4516C36.0521 77.3488 35.7923 77.2298 35.5515 77.0948C35.3107 76.9597 35.108 76.7475 34.9432 76.4581C34.7848 76.1623 34.7056 75.8086 34.7056 75.3971C34.7056 74.8312 34.9115 74.3393 35.3234 73.9213C35.7416 73.4969 36.3088 73.2847 37.0248 73.2847C37.405 73.2847 37.7503 73.3361 38.0608 73.439C38.3777 73.5355 38.5963 73.6351 38.7167 73.738L38.9543 73.9213C39.1507 74.1078 39.249 74.2653 39.249 74.3939C39.249 74.5225 39.1729 74.6994 39.0208 74.9245C38.8054 75.246 38.5836 75.4067 38.3555 75.4067C38.2224 75.4067 38.0577 75.3424 37.8612 75.2138C37.8422 75.201 37.8042 75.1688 37.7472 75.1174C37.6965 75.0659 37.649 75.0241 37.6046 74.992C37.4715 74.9084 37.3004 74.8666 37.0913 74.8666C36.8886 74.8666 36.7175 74.918 36.5781 75.0209C36.445 75.1174 36.3785 75.2556 36.3785 75.4357C36.3785 75.6093 36.4577 75.7508 36.6161 75.8601C36.7808 75.9694 36.9836 76.0434 37.2244 76.0819C37.4652 76.1205 37.7282 76.1816 38.0133 76.2652C38.2985 76.3424 38.5614 76.4388 38.8022 76.5546C39.043 76.6703 39.2426 76.8729 39.401 77.1623C39.5658 77.4452 39.6482 77.7957 39.6482 78.2137C39.6482 78.6316 39.5658 79.0014 39.401 79.3229C39.2363 79.638 39.0208 79.8824 38.7547 80.056C38.2414 80.3968 37.6933 80.5672 37.1103 80.5672C36.8125 80.5672 36.5305 80.5319 36.2644 80.4611C35.9983 80.384 35.7828 80.2907 35.6181 80.1814C35.2822 79.9756 35.0478 79.7763 34.9147 79.5834L34.8292 79.4773Z" fill="white"/>
<path d="M31.7029 73.9415L34.2618 79.2918C34.3693 79.5092 34.423 79.6722 34.423 79.7809C34.423 80.011 34.2397 80.2187 33.8733 80.4041C33.6584 80.5128 33.4879 80.5671 33.3615 80.5671C33.2414 80.5671 33.1403 80.5384 33.0582 80.4808C32.9824 80.4233 32.9255 80.3626 32.8876 80.2986C32.856 80.2347 32.8086 80.1388 32.7455 80.011L32.2526 78.9754H29.6274L29.1345 80.011C29.0714 80.1388 29.0208 80.2315 28.9829 80.2891C28.9513 80.3466 28.8944 80.4073 28.8123 80.4712C28.7365 80.5288 28.6354 80.5575 28.509 80.5575C28.389 80.5575 28.2215 80.5032 28.0067 80.3945C27.6403 80.2155 27.457 80.011 27.457 79.7809C27.457 79.6722 27.5107 79.5092 27.6181 79.2918L30.1771 73.9319C30.2466 73.7849 30.3508 73.6666 30.4898 73.5771C30.6351 73.4876 30.7868 73.4429 30.9447 73.4429C31.2859 73.4429 31.5387 73.6091 31.7029 73.9415ZM30.9353 76.2427L30.3097 77.5563H31.5702L30.9353 76.2427Z" fill="white"/>
<path d="M26.718 73.7002C26.7693 73.7955 26.7982 73.8812 26.8046 73.9575C26.8174 74.0337 26.8238 74.1449 26.8238 74.291V79.5798C26.8238 80.0181 26.702 80.2754 26.4583 80.3516C26.3364 80.3897 26.1825 80.4088 25.9966 80.4088C25.8106 80.4088 25.6631 80.3929 25.5541 80.3612C25.445 80.3294 25.3617 80.2913 25.304 80.2468C25.2463 80.2023 25.2014 80.1388 25.1693 80.0562C25.1372 79.9482 25.1212 79.783 25.1212 79.5607V76.3684C24.9609 76.5653 24.7268 76.8798 24.419 77.3118C24.1112 77.7374 23.9156 78.0042 23.8322 78.1122C23.7489 78.2202 23.6911 78.2965 23.6591 78.3409C23.627 78.3791 23.5469 78.4362 23.4186 78.5125C23.2968 78.5824 23.1621 78.6173 23.0146 78.6173C22.8735 78.6173 22.742 78.5855 22.6202 78.522C22.5048 78.4521 22.4214 78.3854 22.3701 78.3219L22.2931 78.2171C22.1649 78.0582 21.9116 77.7215 21.5332 77.207C21.1549 76.686 20.9497 76.4065 20.9176 76.3684V79.5798C20.9176 79.7259 20.9112 79.837 20.8984 79.9133C20.8919 79.9832 20.8631 80.0626 20.8118 80.1515C20.7156 80.323 20.4655 80.4088 20.0615 80.4088C19.6703 80.4088 19.4266 80.323 19.3304 80.1515C19.2791 80.0626 19.2471 79.98 19.2342 79.9037C19.2278 79.8275 19.2246 79.7132 19.2246 79.5607V74.2719C19.2246 74.1258 19.2278 74.0178 19.2342 73.9479C19.2471 73.8717 19.2791 73.7859 19.3304 73.6906C19.4266 73.5255 19.6767 73.4429 20.0807 73.4429C20.2539 73.4429 20.4014 73.4651 20.5232 73.5096C20.6515 73.5477 20.7348 73.589 20.7733 73.6335L20.831 73.6906L23.0146 76.5304C24.1048 75.101 24.8326 74.1576 25.1982 73.7002C25.3072 73.5286 25.5637 73.4429 25.9677 73.4429C26.3781 73.4429 26.6282 73.5286 26.718 73.7002Z" fill="white"/>
<defs>
<linearGradient id="paint0_linear_316_284" x1="47.4332" y1="-15.0075" x2="-8.17833" y2="49.4009" gradientUnits="userSpaceOnUse">
<stop stop-color="#4A2FEE"/>
<stop offset="0.28" stop-color="#9F2AE6"/>
<stop offset="1" stop-color="#0F73BB"/>
</linearGradient>
<linearGradient id="paint1_linear_316_284" x1="53.7772" y1="-15.8303" x2="-2.59733" y2="49.4691" gradientUnits="userSpaceOnUse">
<stop stop-color="#4A2FEE"/>
<stop offset="0.275663" stop-color="#9F2AE6"/>
<stop offset="1" stop-color="#0F73BB"/>
</linearGradient>
<linearGradient id="paint2_linear_316_284" x1="53.6701" y1="63.4146" x2="48.1598" y2="90.2152" gradientUnits="userSpaceOnUse">
<stop stop-color="#4A2FEE"/>
<stop offset="0.275663" stop-color="#9F2AE6"/>
<stop offset="1" stop-color="#0F73BB"/>
</linearGradient>
</defs>
</svg>
