<svg xmlns="http://www.w3.org/2000/svg" width="49" height="52" viewBox="0 0 49 52"><defs><linearGradient id="a" x1="93.136%" x2="4.926%" y1="8.76%" y2="95.609%"><stop offset="0%" stop-color="#EE582F"/><stop offset="27.566%" stop-color="#E62A44"/><stop offset="100%" stop-color="#BB0F80"/></linearGradient></defs><path fill="url(#a)" d="M1161 655.5c0 3.44 1.95 6.54 4.942 7.854 2.991 1.315 6.433.585 8.72-1.85 2.287-2.434 2.967-6.093 1.724-9.268-1.243-3.176-4.164-5.243-7.401-5.236-4.41.015-7.98 3.814-7.985 8.5zm7.484-5.5a5.5 5.5 0 1 1-5.484 5.5 5.51 5.51 0 0 1 5.484-5.5zm19.981-3.099a20.807 20.807 0 0 1-2.499 20.155 1.327 1.327 0 0 1-1.759.168 1.316 1.316 0 0 1-.359-1.724 18.178 18.178 0 0 0 2.166-17.607 1.934 1.934 0 0 0-2.277-1.155c-.45.154-.82.482-1.026.911a1.761 1.761 0 0 0-.064 1.368l.105.258c.317.786.57 1.595.758 2.421a14.731 14.731 0 0 1-3.61 13.038 14.855 14.855 0 0 1-12.75 4.643c-7.442-.851-13.034-7.17-12.95-14.632a14.616 14.616 0 0 1 1.112-5.602c.374-.88.002-1.9-.853-2.336a1.774 1.774 0 0 0-2.414.917 18.188 18.188 0 0 0 3.394 19.337 20.003 20.003 0 0 1 5.294 13.525v8.777h9.678c.731 0 1.324.59 1.324 1.318 0 .729-.593 1.319-1.324 1.319h-10.234a2.05 2.05 0 0 1-2.054-2.047v-9.367a17.37 17.37 0 0 0-4.617-11.742 20.818 20.818 0 0 1-3.886-22.154 4.413 4.413 0 0 1 2.496-2.4 4.436 4.436 0 0 1 3.466.132 4.482 4.482 0 0 1 2.176 5.729 11.987 11.987 0 0 0-.91 4.594 12.133 12.133 0 0 0 7.726 11.257 12.209 12.209 0 0 0 13.35-3.013 12.1 12.1 0 0 0 2.98-10.744 13.755 13.755 0 0 0-.64-2.02l-.1-.275a4.39 4.39 0 0 1 .143-3.422 4.415 4.415 0 0 1 2.562-2.285 4.563 4.563 0 0 1 5.596 2.658zM1184 670c-7.18 0-13 5.82-13 13s5.82 13 13 13 13-5.82 13-13c-.009-7.176-5.824-12.991-13-13zm0 24c-5.523 0-10-4.701-10-10.5s4.477-10.5 10-10.5 10 4.701 10 10.5c-.006 5.797-4.48 10.494-10 10.5zm5.765-14.459a1.243 1.243 0 0 1-.325 1.765 20.867 20.867 0 0 0-5.323 5.151c-.245.34-.646.543-1.074.543h-.057a1.315 1.315 0 0 1-1.078-.634 6.067 6.067 0 0 0-2.246-2.185 1.261 1.261 0 0 1-.662-1.1c-.001-.454.25-.875.657-1.102a1.345 1.345 0 0 1 1.314.006 8.74 8.74 0 0 1 2.093 1.628 23.512 23.512 0 0 1 4.89-4.391c.592-.393 1.4-.25 1.81.319z" transform="translate(-1148 -644)"/></svg>