<svg width="60" height="60" viewBox="0 0 60 60" fill="none" xmlns="http://www.w3.org/2000/svg">
<path fill-rule="evenodd" clip-rule="evenodd" d="M45.6674 6.71235C48.3418 13.4634 47.414 21.1499 43.2147 27.032C42.7656 27.5306 42.0217 27.6033 41.4885 27.2008C40.9552 26.7983 40.8034 26.0496 41.1361 25.4632C44.7986 20.3213 45.6025 13.6068 43.2615 7.71211C42.9094 6.80355 41.9521 6.30461 41.027 6.5475C40.5844 6.70274 40.2215 7.03378 40.0201 7.46597C39.8187 7.89818 39.7958 8.39515 39.9566 8.84483L40.0605 9.1054C40.3709 9.89765 40.6193 10.7138 40.8036 11.5463C41.7673 16.2562 40.4475 21.1524 37.2605 24.6905C34.0734 28.2286 29.4121 29.9724 24.7467 29.3719C17.4423 28.5139 11.9538 22.1439 12.0364 14.6201C12.035 12.6825 12.4057 10.7636 13.1276 8.97245C13.4953 8.08415 13.1302 7.05602 12.291 6.61663C11.8591 6.40055 11.359 6.37746 10.9099 6.55284C10.4608 6.72822 10.1029 7.08637 9.92143 7.54194C7.22868 14.1499 8.52831 21.7565 13.2523 27.0373C16.5883 30.7582 18.4421 35.6225 18.4487 40.6724V49.5213H27.9477C28.6652 49.5213 29.2468 50.1165 29.2468 50.8508C29.2468 51.585 28.6652 52.1803 27.9477 52.1803H17.9031C16.7896 52.1803 15.8869 51.2565 15.8869 50.1169V40.6724C15.8753 36.2856 14.2587 32.0623 11.3556 28.8347C5.93969 22.7866 4.45103 14.0692 7.54148 6.49964C8.00154 5.3851 8.88607 4.51093 9.99053 4.0793C11.095 3.64766 12.3237 3.69593 13.3926 4.21295C15.4766 5.26479 16.4097 7.78784 15.5283 9.98817C14.9367 11.4573 14.633 13.0311 14.6346 14.6201C14.649 19.6367 17.6554 24.1357 22.2184 25.9691C26.7814 27.8025 31.9756 26.5985 35.3214 22.9319C37.9558 20.0205 39.0465 15.9821 38.2469 12.0994C38.0887 11.405 37.8785 10.724 37.6182 10.0626L37.5194 9.78609C37.1096 8.66357 37.1605 7.41918 37.6605 6.33561C38.1606 5.25205 39.0673 4.42132 40.1748 4.03214C42.4089 3.31771 44.8034 4.48619 45.6674 6.71235ZM23.5833 23.3083C20.6474 21.9828 18.7327 18.8571 18.7327 15.3895C18.7382 10.6656 22.2412 6.8351 26.5695 6.82003C29.7466 6.81339 32.6143 8.89706 33.8344 12.0987C35.0544 15.3004 34.3864 18.989 32.1419 21.4432C29.8975 23.8975 26.5191 24.6337 23.5833 23.3083ZM31.4967 13.2651C30.6564 11.1936 28.6833 9.84662 26.4986 9.85295C23.5256 9.86725 21.1212 12.344 21.1157 15.3979C21.1157 17.6421 22.4326 19.6649 24.4516 20.5223C26.4706 21.3796 28.7936 20.9023 30.3363 19.3132C31.8789 17.7241 32.337 15.3366 31.4967 13.2651ZM28.4813 43.1065C28.4813 35.868 34.1939 30.0001 41.2407 30.0001C48.284 30.009 53.9915 35.8717 54.0002 43.1065C54.0002 50.3451 48.2876 56.213 41.2407 56.213C34.1939 56.213 28.4813 50.3451 28.4813 43.1065ZM41.3292 53.7717C35.9085 53.7717 31.5142 49.0322 31.5142 43.1857C31.5142 37.3392 35.9085 32.5997 41.3292 32.5997C46.7498 32.5997 51.1441 37.3392 51.1441 43.1857C51.1385 49.0297 46.7475 53.7657 41.3292 53.7717ZM46.6245 41.3983C47.206 40.9945 47.3486 40.1981 46.943 39.6192C46.5393 39.0452 45.7465 38.9016 45.1654 39.2972C43.3648 40.5414 41.7494 42.0318 40.3667 43.7244C39.7702 43.0758 39.0771 42.5223 38.3116 42.0833C37.9139 41.8514 37.4219 41.8492 37.0222 42.0777C36.6226 42.3061 36.3765 42.7301 36.3775 43.1887C36.3785 43.6473 36.6265 44.0703 37.0271 44.2969C37.9431 44.8266 38.7032 45.5864 39.2312 46.5003C39.4508 46.8796 39.8501 47.1207 40.2896 47.1393H40.3461C40.766 47.1392 41.1592 46.935 41.3994 46.5923C42.8156 44.5646 44.5852 42.8055 46.6245 41.3983Z" fill="url(#paint0_linear_236_896)"/>
<defs>
<linearGradient id="paint0_linear_236_896" x1="29.8373" y1="-14.7427" x2="-16.1701" y2="26.7729" gradientUnits="userSpaceOnUse">
<stop stop-color="#4A2FEE"/>
<stop offset="0.275663" stop-color="#9F2AE6"/>
<stop offset="1" stop-color="#0F73BB"/>
</linearGradient>
</defs>
</svg>
