<svg xmlns="http://www.w3.org/2000/svg" width="53" height="50" viewBox="0 0 53 50"><defs><linearGradient id="a" x1="93.136%" x2="4.926%" y1="8.76%" y2="95.609%"><stop offset="0%" stop-color="#EE582F"/><stop offset="27.566%" stop-color="#E62A44"/><stop offset="100%" stop-color="#BB0F80"/></linearGradient></defs><path d="M45.629 23.242a1.344 1.344 0 0 0-1.14-.634H8.204c-.464 0-.895.24-1.14.634L.205 34.258a1.344 1.344 0 0 0 1.14 2.054h5.914v9.532A4.167 4.167 0 0 0 11.414 50h29.86a4.167 4.167 0 0 0 4.161-4.161v-9.527h5.914a1.344 1.344 0 0 0 1.14-2.054l-6.86-11.016zM3.763 33.624l5.189-8.328h14.973l-5.188 8.328H3.763zM25 47.312H11.414c-.814 0-1.473-.66-1.473-1.473v-9.527h9.543c.464 0 .895-.24 1.14-.635L25 28.656v18.656zm17.742-1.473c0 .811-.656 1.47-1.468 1.473H27.688V28.656l4.371 7.027c.245.394.676.634 1.14.634h9.543v9.522zm-8.79-12.215l-5.189-8.328h14.974l5.188 8.328H33.952zm-9.194-14.855a2.462 2.462 0 0 0 1.747-.72l8.667-8.667a2.473 2.473 0 0 0 0-3.495L33.21 3.925a2.468 2.468 0 0 0-3.49 0l-4.957 4.957-1.785-1.785a2.468 2.468 0 0 0-3.494 0l-1.962 1.962a2.473 2.473 0 0 0 0 3.495l5.494 5.494a2.459 2.459 0 0 0 1.742.72zm-3.532-9.63l2.586 2.581a1.344 1.344 0 0 0 1.903 0l5.753-5.752 1.65 1.666-8.36 8.355-5.188-5.188 1.656-1.661zm19.973 1.103c0 .742.602 1.344 1.344 1.344h3.01a1.344 1.344 0 1 0 0-2.688h-3.01c-.742 0-1.344.602-1.344 1.344zM39.01 17.43l2.151 2.15a1.346 1.346 0 0 0 1.904-1.903l-2.151-2.15a1.346 1.346 0 0 0-1.903 1.903zM41.14.925l-2.15 2.15a1.346 1.346 0 1 0 1.902 1.903l2.151-2.15A1.346 1.346 0 0 0 41.14.925zM5.79 10.242c0 .742.602 1.344 1.344 1.344h3.011a1.344 1.344 0 0 0 0-2.688h-3.01c-.743 0-1.345.602-1.345 1.344zM11.548.925a1.346 1.346 0 0 0-1.903 1.903l2.15 2.15A1.346 1.346 0 0 0 13.7 3.075L11.55.925zm.232 14.607l-2.151 2.15a1.346 1.346 0 1 0 1.903 1.904l2.15-2.15a1.346 1.346 0 1 0-1.902-1.904z" fill="url(#a)"/></svg>