<svg width="60" height="60" viewBox="0 0 60 60" fill="none" xmlns="http://www.w3.org/2000/svg">
<path fill-rule="evenodd" clip-rule="evenodd" d="M49.1059 28.0118C48.8641 27.6133 48.439 27.3707 47.9811 27.3701H12.1746C11.7167 27.3707 11.2915 27.6133 11.0498 28.0118L4.28004 39.154C4.0259 39.573 4.01315 40.1001 4.24671 40.5315C4.48026 40.9628 4.92348 41.2307 5.40479 41.2313H11.2408V50.8726C11.2466 53.1917 13.0794 55.0701 15.3419 55.0761H44.8085C47.0752 55.0731 48.912 53.1905 48.9149 50.8672V41.2313H54.7509C55.2322 41.2307 55.6754 40.9628 55.909 40.5315C56.1425 40.1001 56.1298 39.573 55.8756 39.154L49.1059 28.0118ZM7.79223 38.5124L12.912 30.0891H27.6877L22.5679 38.5124H7.79223ZM15.3419 52.3572H28.7488V33.4878L24.4302 40.5896C24.1885 40.9882 23.7633 41.2307 23.3054 41.2313H13.8882V50.8672C13.8882 51.6901 14.5391 52.3572 15.3419 52.3572ZM46.2568 50.8672C46.2568 51.688 45.6092 52.3542 44.8084 52.3572H31.4015V33.4878L35.7149 40.5951C35.9566 40.9936 36.3818 41.2362 36.8396 41.2368H46.2568V50.8672ZM32.4626 30.0891L37.5824 38.5124H52.3581L47.2383 30.0891H32.4626Z" fill="url(#paint0_linear_236_913)"/>
<path fill-rule="evenodd" clip-rule="evenodd" d="M30.2346 22.7582C29.7773 23.2265 29.1567 23.4888 28.5103 23.4869C27.8657 23.4873 27.2473 23.2252 26.7913 22.7582L21.3691 17.2007C20.418 16.2242 20.418 14.6426 21.3691 13.6661L23.3056 11.6813C23.7625 11.2117 24.3829 10.9478 25.0299 10.9478C25.6769 10.9478 26.2973 11.2117 26.7542 11.6813L28.5156 13.4866L33.4072 8.47291C34.3582 7.49861 35.8995 7.49861 36.8505 8.47291L38.787 10.4577C39.7382 11.4343 39.7382 13.0158 38.787 13.9924L30.2346 22.7582ZM27.5765 16.3578L25.0246 13.7477L23.3905 15.428L28.5103 20.6755L36.7603 12.2251L35.1315 10.5393L29.4546 16.3578C29.2058 16.6135 28.8679 16.7572 28.5156 16.7572C28.1632 16.7572 27.8253 16.6135 27.5765 16.3578Z" fill="url(#paint1_linear_236_913)"/>
<path d="M44.7344 14.8624C44.7344 15.6132 45.3282 16.2219 46.0607 16.2219H49.0318C49.7643 16.2219 50.3582 15.6132 50.3582 14.8624C50.3582 14.1116 49.7643 13.5029 49.0318 13.5029H46.0607C45.3282 13.5029 44.7344 14.1116 44.7344 14.8624Z" fill="url(#paint2_linear_236_913)"/>
<path d="M42.575 22.1333L44.6972 24.3084C45.0327 24.6523 45.5217 24.7866 45.98 24.6607C46.4383 24.5349 46.7963 24.168 46.9191 23.6982C47.0419 23.2285 46.9109 22.7273 46.5754 22.3834L44.4532 20.2083C44.1177 19.8644 43.6287 19.7301 43.1704 19.856C42.7121 19.9818 42.3541 20.3488 42.2313 20.8185C42.1085 21.2882 42.2395 21.7894 42.575 22.1333Z" fill="url(#paint3_linear_236_913)"/>
<path d="M44.6757 5.43872L42.5535 7.61387C42.0349 8.14545 42.0349 9.00731 42.5535 9.53888C43.0722 10.0705 43.913 10.0705 44.4317 9.53888L46.5538 7.36373C47.0725 6.83215 47.0725 5.9703 46.5538 5.43872C46.0352 4.90714 45.1943 4.90714 44.6757 5.43872V5.43872Z" fill="url(#paint4_linear_236_913)"/>
<path d="M9.79248 14.8624C9.79248 15.6132 10.3863 16.2219 11.1188 16.2219H14.0899C14.8224 16.2219 15.4163 15.6132 15.4163 14.8624C15.4163 14.1116 14.8224 13.5029 14.0899 13.5029H11.1188C10.3863 13.5029 9.79248 14.1116 9.79248 14.8624Z" fill="url(#paint5_linear_236_913)"/>
<path d="M15.4746 5.43872C14.956 4.90714 14.1151 4.90714 13.5965 5.43872C13.0779 5.9703 13.0779 6.83215 13.5965 7.36373L15.7187 9.53888C16.2373 10.0705 17.0782 10.0705 17.5968 9.53888C18.1154 9.00731 18.1154 8.14545 17.5968 7.61387L15.4746 5.43872Z" fill="url(#paint6_linear_236_913)"/>
<path d="M15.7026 20.2131L13.5804 22.3883C13.2449 22.7322 13.1139 23.2334 13.2367 23.7031C13.3595 24.1728 13.7175 24.5397 14.1758 24.6656C14.6341 24.7915 15.123 24.6572 15.4585 24.3133L17.5807 22.1381C18.0994 21.6066 18.0994 20.7447 17.5807 20.2131C17.0621 19.6816 16.2212 19.6816 15.7026 20.2131V20.2131Z" fill="url(#paint7_linear_236_913)"/>
<defs>
<linearGradient id="paint0_linear_236_913" x1="29.9281" y1="17.5775" x2="9.46512" y2="55.3875" gradientUnits="userSpaceOnUse">
<stop stop-color="#4A2FEE"/>
<stop offset="0.275663" stop-color="#9F2AE6"/>
<stop offset="1" stop-color="#0F73BB"/>
</linearGradient>
<linearGradient id="paint1_linear_236_913" x1="30.0238" y1="2.17726" x2="16.3188" y2="18.3274" gradientUnits="userSpaceOnUse">
<stop stop-color="#4A2FEE"/>
<stop offset="0.275663" stop-color="#9F2AE6"/>
<stop offset="1" stop-color="#0F73BB"/>
</linearGradient>
<linearGradient id="paint2_linear_236_913" x1="47.5301" y1="12.5419" x2="45.632" y2="16.4072" gradientUnits="userSpaceOnUse">
<stop stop-color="#4A2FEE"/>
<stop offset="0.275663" stop-color="#9F2AE6"/>
<stop offset="1" stop-color="#0F73BB"/>
</linearGradient>
<linearGradient id="paint3_linear_236_913" x1="44.5614" y1="18.0785" x2="40.2443" y2="22.2256" gradientUnits="userSpaceOnUse">
<stop stop-color="#4A2FEE"/>
<stop offset="0.275663" stop-color="#9F2AE6"/>
<stop offset="1" stop-color="#0F73BB"/>
</linearGradient>
<linearGradient id="paint4_linear_236_913" x1="44.5399" y1="3.30902" x2="40.2228" y2="7.45602" gradientUnits="userSpaceOnUse">
<stop stop-color="#4A2FEE"/>
<stop offset="0.275663" stop-color="#9F2AE6"/>
<stop offset="1" stop-color="#0F73BB"/>
</linearGradient>
<linearGradient id="paint5_linear_236_913" x1="12.5882" y1="12.5419" x2="10.6901" y2="16.4072" gradientUnits="userSpaceOnUse">
<stop stop-color="#4A2FEE"/>
<stop offset="0.275663" stop-color="#9F2AE6"/>
<stop offset="1" stop-color="#0F73BB"/>
</linearGradient>
<linearGradient id="paint6_linear_236_913" x1="15.5829" y1="3.30902" x2="11.2658" y2="7.45602" gradientUnits="userSpaceOnUse">
<stop stop-color="#4A2FEE"/>
<stop offset="0.275663" stop-color="#9F2AE6"/>
<stop offset="1" stop-color="#0F73BB"/>
</linearGradient>
<linearGradient id="paint7_linear_236_913" x1="15.5668" y1="18.0834" x2="11.2496" y2="22.2305" gradientUnits="userSpaceOnUse">
<stop stop-color="#4A2FEE"/>
<stop offset="0.275663" stop-color="#9F2AE6"/>
<stop offset="1" stop-color="#0F73BB"/>
</linearGradient>
</defs>
</svg>
