<svg width="60" height="60" viewBox="0 0 60 60" fill="none" xmlns="http://www.w3.org/2000/svg">
<path fill-rule="evenodd" clip-rule="evenodd" d="M24.1518 27.2899C24.1544 30.1353 25.5105 32.7973 27.7784 34.4093C26.9379 35.9542 25.7176 37.2421 24.241 38.1426L24.1518 38.0558C23.0626 37.063 21.5023 36.8463 20.1984 37.5067C18.8945 38.1671 18.1037 39.5746 18.1948 41.0728C18.3164 43.0256 19.8816 44.5466 21.7742 44.5511H22.0052C23.9819 44.4175 25.4817 42.6558 25.3589 40.6116C27.3738 39.4262 29.0281 37.682 30.1349 35.5759C34.146 36.8086 38.4211 34.7875 40.1432 30.8445C41.8652 26.9014 40.5046 22.2493 36.9578 19.9535C36.9161 15.0393 36.6253 10.1308 36.0866 5.24813C36.0135 4.68324 35.6067 4.2258 35.0684 4.10317C34.2229 3.91352 33.3651 3.78839 32.5019 3.72875C31.2375 3.6389 29.9675 3.68618 28.7126 3.86985C27.9989 3.98664 27.5109 4.678 27.6209 5.41635C28.1957 10.153 28.5093 14.9196 28.5604 19.693C25.8578 21.2013 24.1671 24.1146 24.1518 27.2899ZM21.8425 41.8542C21.3136 41.8878 20.8574 41.4745 20.82 40.928C20.7827 40.3815 21.1782 39.906 21.7064 39.8624C22.2346 39.8187 22.6981 40.2233 22.7452 40.7689C22.7684 41.0375 22.6855 41.3043 22.5155 41.5087C22.3455 41.7131 22.1028 41.8377 21.8425 41.8542ZM32.3497 6.42557C31.7013 6.38342 31.051 6.38342 30.4026 6.42557C30.8224 10.0287 31.0796 14.8798 31.1688 18.7433C32.2133 18.5543 33.2838 18.5819 34.3179 18.8247C34.2391 14.9015 34.003 10.0938 33.6041 6.57208C33.1842 6.50154 32.7643 6.4527 32.3497 6.42557ZM32.5019 21.3209C35.6904 21.3209 38.2751 23.9933 38.2751 27.2899C38.2751 30.5865 35.6904 33.2589 32.5019 33.2589C29.3135 33.2589 26.7287 30.5865 26.7287 27.2899C26.7287 23.9933 29.3135 21.3209 32.5019 21.3209ZM8.64799 34.0132C8.31721 34.7855 8.31721 35.6664 8.64799 36.4387C8.97815 37.2123 9.60913 37.8055 10.3852 38.0721L12.3114 38.7287V44.8876C12.3143 47.5056 14.3663 49.6272 16.8985 49.6302H22.9499L24.1412 53.9712C24.624 55.6827 26.3483 56.6744 28.0093 56.196L46.8773 50.6232C48.5148 50.1216 49.4671 48.3618 49.0239 46.6565L46.4364 37.2798C49.9024 33.2732 51.6618 27.9923 51.3174 22.6287C50.8644 15.4865 46.8033 9.12023 40.6317 5.87762C39.9853 5.53747 39.1946 5.8035 38.8656 6.4718C38.5366 7.14011 38.7939 7.95762 39.4403 8.29776C44.7966 11.0986 48.3246 16.6153 48.7194 22.8078C49.0268 27.6805 47.3306 32.4609 44.0484 35.9721C43.7229 36.3128 43.5952 36.8057 43.7125 37.269L46.5046 47.3674C46.5759 47.6499 46.4182 47.94 46.1477 48.024L27.2903 53.5697C27.0235 53.6377 26.7511 53.4816 26.6657 53.2116L25.2014 47.91C25.0381 47.3312 24.525 46.9333 23.9418 46.9333H16.8932C15.8091 46.9333 14.9303 46.0247 14.9303 44.9038V37.7411C14.9299 37.1574 14.5684 36.6395 14.0328 36.455L11.2092 35.4891C11.1372 35.4651 11.0785 35.4106 11.0475 35.3393C11.0165 35.2679 11.0161 35.1864 11.0465 35.1147L14.0643 28.1419C14.6466 26.7987 14.9471 25.3433 14.9461 23.8713C14.9189 17.2 18.5908 11.1025 24.3932 8.18381C25.0439 7.85415 25.3129 7.0415 24.9941 6.3687C24.6753 5.6959 23.8893 5.41773 23.2385 5.74739C16.5307 9.11708 12.2819 16.1608 12.3061 23.8713C12.3081 24.9633 12.0862 26.0434 11.6553 27.0403L8.64799 34.0132Z" fill="url(#paint0_linear_236_889)"/>
<defs>
<linearGradient id="paint0_linear_236_889" x1="29.7562" y1="-14.9179" x2="-15.5879" y2="21.5225" gradientUnits="userSpaceOnUse">
<stop stop-color="#4A2FEE"/>
<stop offset="0.275663" stop-color="#9F2AE6"/>
<stop offset="1" stop-color="#0F73BB"/>
</linearGradient>
</defs>
</svg>
