<svg xmlns="http://www.w3.org/2000/svg" width="42" height="50" viewBox="0 0 42 50"><defs><linearGradient id="a" x1="93.136%" x2="4.926%" y1="8.76%" y2="95.609%"><stop offset="0%" stop-color="#EE582F"/><stop offset="27.566%" stop-color="#E62A44"/><stop offset="100%" stop-color="#BB0F80"/></linearGradient></defs><path fill="url(#a)" d="M716.4 666.425a8.228 8.228 0 0 0 3.545 6.763 9.537 9.537 0 0 1-3.458 3.547l-.087-.082a3.497 3.497 0 0 0-3.865-.522 3.529 3.529 0 0 0-1.959 3.388 3.522 3.522 0 0 0 3.5 3.304h.225a3.526 3.526 0 0 0 3.279-3.742 12.186 12.186 0 0 0 4.67-4.784c3.92 1.17 8.1-.75 9.784-4.495 1.683-3.746.353-8.166-3.114-10.347a134.206 134.206 0 0 0-.852-13.97 1.286 1.286 0 0 0-.995-1.087 17.667 17.667 0 0 0-6.214-.222 1.288 1.288 0 0 0-1.067 1.47c.561 4.499.868 9.027.918 13.562a8.253 8.253 0 0 0-4.31 7.217zm-2.258 13.836a.946.946 0 0 1-1-.88.947.947 0 0 1 .867-1.012.945.945 0 0 1 1.016.861.951.951 0 0 1-.225.703.943.943 0 0 1-.658.328zm8.369-33.657c.634-.04 1.27-.04 1.904 0 .405.026.815.072 1.226.14.39 3.345.62 7.912.698 11.64a7.78 7.78 0 0 0-3.079-.078c-.087-3.67-.339-8.28-.749-11.702zm2.052 14.15c3.118 0 5.645 2.54 5.645 5.671 0 3.132-2.527 5.67-5.645 5.67-3.117 0-5.644-2.538-5.644-5.67s2.527-5.67 5.644-5.67zm-23.32 14.362a2.858 2.858 0 0 1 0-2.304l2.94-6.624a7.375 7.375 0 0 0 .636-3.01c-.024-7.326 4.13-14.017 10.688-17.218a1.28 1.28 0 0 1 1.716.59 1.29 1.29 0 0 1-.587 1.724c-5.673 2.773-9.263 8.566-9.236 14.903a9.942 9.942 0 0 1-.862 4.057l-2.95 6.625a.264.264 0 0 0 .159.355l2.76.918c.524.175.877.667.877 1.222v6.804c0 1.065.86 1.928 1.92 1.928h6.89c.57 0 1.072.378 1.232.928l1.432 5.037c.083.256.35.404.61.34l18.436-5.269a.516.516 0 0 0 .35-.623l-2.73-9.594c-.115-.44.01-.908.328-1.232a16.5 16.5 0 0 0 4.567-12.506 16.68 16.68 0 0 0-9.072-13.785 1.293 1.293 0 0 1-.562-1.734 1.281 1.281 0 0 1 1.727-.565c6.033 3.08 10.004 9.129 10.446 15.914a19.046 19.046 0 0 1-4.771 13.918l2.53 8.908a3.095 3.095 0 0 1-2.1 3.769l-18.446 5.294a3.077 3.077 0 0 1-3.781-2.114l-1.165-4.124h-5.916c-2.476-.003-4.482-2.018-4.485-4.505v-5.851l-1.883-.624a2.837 2.837 0 0 1-1.698-1.552z" transform="translate(-701 -644)"/></svg>