<svg width="60" height="60" viewBox="0 0 60 60" fill="none" xmlns="http://www.w3.org/2000/svg">
<path d="M51.0857 23.4193C51.087 22.8689 50.9794 22.3237 50.7689 21.8153C50.5585 21.3068 50.2495 20.8454 49.8599 20.4576C49.6853 20.2903 49.4967 20.1383 49.2963 20.0033L49.8599 19.4393C50.4923 18.8221 50.9128 18.0195 51.061 17.1473C51.2091 16.275 51.0772 15.3782 50.6842 14.5859C50.2909 13.7932 49.6569 13.146 48.8735 12.7373C48.09 12.3286 47.1974 12.1795 46.3241 12.3115V10.4591C46.3223 9.14906 45.8021 7.89328 44.8778 6.96725C43.9534 6.04122 42.7003 5.52057 41.3935 5.51953H20.9504C19.6434 5.52031 18.3901 6.04085 17.4655 6.9669C16.5409 7.89296 16.0207 9.14889 16.0188 10.4591V18.4504C15.1936 18.5897 14.4258 18.964 13.807 19.5288C13.1882 20.0935 12.7445 20.8248 12.529 21.6354L9.25299 34.6417C9.1173 35.2006 9.08519 35.7797 9.15824 36.3502L9.83219 41.5149C9.97553 42.6071 9.82373 43.7179 9.39266 44.7312C9.30532 44.9329 9.27249 45.154 9.29745 45.3724C9.32241 45.5909 9.40429 45.7988 9.53486 45.9755C9.66544 46.1521 9.8401 46.2912 10.0413 46.3787C10.2425 46.4662 10.4631 46.4991 10.681 46.474C10.8991 46.4494 11.1069 46.3677 11.2835 46.2371C11.46 46.1064 11.5992 45.9315 11.687 45.7299C12.2916 44.3036 12.5031 42.7407 12.2994 41.2045L11.6216 36.0604C11.5894 35.7952 11.6059 35.5265 11.6704 35.2673L14.9171 22.2806C15.0375 21.8318 15.3217 21.4447 15.7133 21.1959C16.1049 20.9472 16.5754 20.8549 17.0317 20.9373C17.2761 20.9824 17.5088 21.0766 17.7158 21.2143C17.9229 21.352 18.1 21.5303 18.2364 21.7384C18.3728 21.9466 18.4658 22.1802 18.5098 22.4254C18.5537 22.6705 18.5476 22.922 18.4919 23.1647L16.8364 31.3108C16.7524 31.7298 16.8872 32.1626 17.1958 32.4593C17.2251 32.4886 20.2677 35.4553 20.2677 39.826C20.2677 40.1573 20.399 40.4751 20.6327 40.7094C20.8664 40.9437 21.1834 41.0753 21.514 41.0753C21.8445 41.0753 22.1615 40.9437 22.3952 40.7094C22.629 40.4751 22.7603 40.1573 22.7603 39.826C22.6886 36.6397 21.5029 33.5798 19.4101 31.1806L20.9357 23.6347C21.148 22.667 21.0228 21.6555 20.5809 20.7692C20.1389 19.8829 19.4071 19.1754 18.5076 18.7647V10.4591C18.5078 9.81219 18.764 9.19184 19.22 8.73407C19.6759 8.2763 20.2943 8.01849 20.9396 8.0172H41.3828C41.7029 8.01694 42.0199 8.0799 42.3157 8.20249C42.6115 8.32508 42.8804 8.50489 43.1069 8.73165C43.3333 8.95841 43.513 9.22768 43.6357 9.52407C43.7583 9.82046 43.8215 10.1382 43.8217 10.4591V13.6108L42.7639 14.6692C42.3302 15.1008 41.9966 15.6228 41.7869 16.1982C41.5771 16.7735 41.4962 17.3882 41.55 17.9984C41.6038 18.6086 41.7909 19.1995 42.0981 19.729C42.4053 20.2586 42.825 20.7139 43.3274 21.0626L42.7639 21.6266C42.334 22.0576 42.0036 22.578 41.796 23.1509C41.5884 23.7238 41.5087 24.3354 41.5624 24.9425C41.6161 25.5496 41.802 26.1376 42.107 26.6649C42.4119 27.1923 42.8285 27.6461 43.3274 27.9946L42.7697 28.5537C42.3379 28.9858 42.0057 29.5075 41.7966 30.0821C41.5874 30.6567 41.5063 31.2702 41.559 31.8796C41.6117 32.489 41.7969 33.0794 42.1015 33.6094C42.4062 34.1393 42.823 34.5959 43.3226 34.9471L42.7697 35.5013C42.3028 35.9682 41.9528 36.5393 41.7486 37.1679C41.5443 37.7965 41.4916 38.4647 41.5947 39.1177C41.6978 39.7706 41.9539 40.3898 42.3418 40.9245C42.7298 41.4591 43.2386 41.894 43.8266 42.1934V43.1921C43.8266 43.513 43.7635 43.8307 43.641 44.1271C43.5184 44.4236 43.3388 44.6929 43.1124 44.9198C42.886 45.1466 42.6173 45.3265 42.3215 45.4493C42.0257 45.572 41.7087 45.6351 41.3886 45.6349H26.3498C26.1821 45.6283 26.0148 45.6556 25.8579 45.7154C25.701 45.7751 25.5578 45.866 25.4368 45.9825C25.3158 46.0991 25.2195 46.239 25.1538 46.3938C25.088 46.5485 25.0541 46.715 25.0541 46.8833C25.0541 47.0515 25.088 47.218 25.1538 47.3728C25.2195 47.5275 25.3158 47.6674 25.4368 47.784C25.5578 47.9006 25.701 47.9914 25.8579 48.0512C26.0148 48.1109 26.1821 48.1383 26.3498 48.1316H34.9353C33.6107 50.0529 31.6297 51.4211 29.3669 51.9775C29.1996 51.9916 29.0368 52.0394 28.8883 52.118C28.7398 52.1966 28.6086 52.3044 28.5025 52.435C28.3965 52.5655 28.3178 52.7161 28.2711 52.8779C28.2244 53.0396 28.2107 53.209 28.2308 53.3762C28.2509 53.5433 28.3043 53.7047 28.388 53.8507C28.4717 53.9966 28.5838 54.1242 28.7178 54.2258C28.8517 54.3273 29.0047 54.4008 29.1676 54.4418C29.3304 54.4828 29.4999 54.4905 29.6658 54.4644C29.7664 54.4654 29.867 54.4546 29.9647 54.4301C31.6522 54.0175 33.2304 53.243 34.5905 52.1601C35.9506 51.0771 37.0603 49.7114 37.8431 48.1571H41.3935C42.7003 48.156 43.9534 47.6354 44.8778 46.7093C45.8021 45.7833 46.3223 44.5275 46.3241 43.2175V42.6281C47.2206 42.5043 48.0523 42.0904 48.6927 41.4493L49.8647 40.2754C50.2981 39.8442 50.6315 39.3226 50.8412 38.7478C51.0508 38.1729 51.1316 37.5588 51.0779 36.949C51.0241 36.3393 50.837 35.749 50.5299 35.2199C50.2229 34.6908 49.8033 34.236 49.3012 33.8878L49.855 33.3336C50.2886 32.9028 50.6223 32.3815 50.8324 31.8068C51.0424 31.2321 51.1237 30.6181 51.0704 30.0084C51.017 29.3987 50.8304 28.8083 50.5238 28.279C50.2172 27.7497 49.7981 27.2946 49.2963 26.946L49.855 26.386C50.2459 25.9978 50.556 25.5357 50.7672 25.0264C50.9785 24.5171 51.0868 23.9709 51.0857 23.4193ZM44.5591 25.7868C44.2425 25.4687 44.0647 25.0377 44.0647 24.5883C44.0647 24.139 44.2425 23.708 44.5591 23.3899L45.7312 22.215C46.0487 21.8973 46.479 21.7189 46.9277 21.7189C47.3763 21.7189 47.8067 21.8973 48.1242 22.215C48.2816 22.3724 48.4065 22.5593 48.4917 22.7651C48.5769 22.9709 48.6208 23.1916 48.6208 23.4144C48.6208 23.6372 48.5769 23.8579 48.4917 24.0637C48.4065 24.2695 48.2816 24.4565 48.1242 24.6138L46.9521 25.7868C46.6342 26.1038 46.204 26.2817 45.7556 26.2817C45.3072 26.2817 44.877 26.1038 44.5591 25.7868ZM48.1193 15.2635C48.4362 15.5816 48.6142 16.0128 48.6142 16.4624C48.6142 16.9119 48.4362 17.3431 48.1193 17.6613L46.9472 18.8352C46.6254 19.1427 46.1978 19.3142 45.7532 19.3142C45.3085 19.3142 44.881 19.1427 44.5591 18.8352C44.2422 18.5171 44.0642 18.0859 44.0642 17.6363C44.0642 17.1867 44.2422 16.7555 44.5591 16.4374L45.7312 15.2635C45.8882 15.1058 46.0747 14.9807 46.28 14.8954C46.4853 14.81 46.7054 14.7661 46.9277 14.7661C47.15 14.7661 47.37 14.81 47.5753 14.8954C47.7807 14.9807 47.9672 15.1058 48.1242 15.2635H48.1193ZM44.5591 32.7344C44.4017 32.5771 44.2769 32.3903 44.1917 32.1845C44.1065 31.9788 44.0626 31.7583 44.0626 31.5355C44.0626 31.3127 44.1065 31.0922 44.1917 30.8864C44.2769 30.6807 44.4017 30.4939 44.5591 30.3366L45.7312 29.1636C45.9409 28.9536 46.202 28.8024 46.4884 28.7253C46.7747 28.6483 47.0763 28.648 47.3628 28.7246C47.6493 28.8011 47.9107 28.9518 48.1207 29.1615C48.3308 29.3713 48.4823 29.6326 48.5598 29.9195C48.6371 30.2065 48.6375 30.5089 48.561 30.7961C48.4846 31.0834 48.3339 31.3453 48.1242 31.5556L46.9521 32.7295C46.6306 33.0391 46.2024 33.2124 45.7566 33.2133C45.3108 33.2142 44.8818 33.0427 44.5591 32.7344ZM48.1193 38.5081L46.9277 39.6811C46.6102 39.9988 46.1798 40.1772 45.7312 40.1772C45.2825 40.1772 44.8522 39.9988 44.5347 39.6811C44.3776 39.5237 44.2529 39.3369 44.1679 39.1313C44.0829 38.9257 44.0391 38.7053 44.0391 38.4826C44.0391 38.26 44.0829 38.0396 44.1679 37.834C44.2529 37.6284 44.3776 37.4416 44.5347 37.2842L45.7068 36.1103C46.0263 35.8071 46.4512 35.6406 46.8912 35.6464C47.3312 35.6522 47.7516 35.8297 48.0632 36.1412C48.3747 36.4527 48.5528 36.8737 48.5596 37.3148C48.5665 37.7558 48.4015 38.1821 48.0998 38.5032L48.1193 38.5081Z" fill="url(#paint0_linear_236_940)"/>
<path d="M27.6452 41.7165C27.6452 42.4029 28.204 42.9596 28.8923 42.9596H33.2797C33.9681 42.9596 34.5259 42.4039 34.5259 41.7165C34.5259 41.0291 33.9681 40.4723 33.2797 40.4723H28.8923C28.204 40.4723 27.6452 41.0291 27.6452 41.7165ZM35.8882 19.8468C35.4264 17.5584 33.515 15.8414 31.184 15.623C28.853 15.4046 26.6545 16.7345 25.7722 18.8971C25.6899 19.098 25.6621 19.3176 25.6916 19.5332C25.7212 19.7487 25.807 19.9522 25.9402 20.1227C26.075 20.2944 26.2513 20.4277 26.452 20.5095C26.6526 20.5914 26.8707 20.6191 27.085 20.5898C27.2993 20.5605 27.5025 20.4753 27.6747 20.3425C27.8469 20.2098 27.9823 20.0339 28.0677 19.8321C28.5822 18.5714 29.9263 17.8587 31.2617 18.1356C31.8354 18.2448 32.3602 18.5358 32.7609 18.9668C33.1615 19.3978 33.4174 19.9467 33.4917 20.5346C33.566 21.1225 33.455 21.7193 33.1746 22.2391C32.8942 22.7589 32.4588 23.1752 31.9309 23.428C31.1906 23.7805 30.5643 24.3396 30.1252 25.04C29.6861 25.7404 29.4523 26.5533 29.4511 27.3837V27.7941C29.4511 28.4767 30.0069 29.0314 30.6915 29.0314C30.8528 29.0329 31.0129 29.002 31.1625 28.9406C31.3122 28.8791 31.4484 28.7884 31.5635 28.6735C31.6786 28.5586 31.7703 28.4218 31.8333 28.2709C31.8963 28.1201 31.9295 27.958 31.9309 27.7941V27.3846C31.9346 27.0206 32.0401 26.6651 32.2351 26.3596C32.43 26.054 32.7064 25.811 33.0321 25.6589C35.2056 24.6019 36.3826 22.2073 35.8882 19.8468ZM30.8451 34.006C31.1703 34.0052 31.4819 33.8733 31.7115 33.6393C31.941 33.4053 32.0696 33.0883 32.0691 32.758C32.0674 32.428 31.9368 32.1122 31.706 31.8799C31.4753 31.6476 31.1633 31.5177 30.8384 31.5187C30.6957 31.376 30.5206 31.2711 30.3286 31.2132C30.1366 31.1553 29.9336 31.1463 29.7373 31.1868C29.5411 31.2273 29.3576 31.3162 29.2031 31.4456C29.0486 31.575 28.9278 31.741 28.8513 31.929C28.7748 32.117 28.745 32.3211 28.7645 32.5236C28.7839 32.726 28.852 32.9205 28.9628 33.0899C29.0737 33.2593 29.2238 33.3985 29.4 33.4952C29.5762 33.5918 29.7731 33.643 29.9733 33.6443C30.2038 33.8763 30.5187 34.007 30.8451 34.005V34.006Z" fill="url(#paint1_linear_236_940)"/>
<defs>
<linearGradient id="paint0_linear_236_940" x1="29.9992" y1="-11.7852" x2="-12.5848" y2="24.1813" gradientUnits="userSpaceOnUse">
<stop stop-color="#4A2FEE"/>
<stop offset="0.275663" stop-color="#9F2AE6"/>
<stop offset="1" stop-color="#0F73BB"/>
</linearGradient>
<linearGradient id="paint1_linear_236_940" x1="30.8105" y1="5.92929" x2="15.0556" y2="11.7802" gradientUnits="userSpaceOnUse">
<stop stop-color="#4A2FEE"/>
<stop offset="0.275663" stop-color="#9F2AE6"/>
<stop offset="1" stop-color="#0F73BB"/>
</linearGradient>
</defs>
</svg>
