<svg width="169" height="142" viewBox="0 0 169 142" fill="none" xmlns="http://www.w3.org/2000/svg">
<path fill-rule="evenodd" clip-rule="evenodd" d="M20.8408 41.5716C20.8408 42.6525 20.9853 43.6482 21.2772 44.5563C21.5558 45.4231 21.8554 46.1205 22.1847 46.6543L32.4942 65.8753C33.3916 67.542 34.5796 68.7788 36.0533 69.5648C37.4913 70.3317 38.9613 70.7194 40.4532 70.7194C41.6682 70.7194 42.8804 70.4961 44.0856 70.0521C45.2884 69.609 46.3687 68.9894 47.3225 68.1946C48.2925 67.3862 49.0692 66.3992 49.6487 65.2402C50.2361 64.0653 50.5301 62.7915 50.5301 61.4298C50.5301 59.7426 49.9312 57.8515 48.7547 55.7461L41.1465 43.7995C43.7546 42.5212 46.0008 40.5137 47.8792 37.7913C49.999 34.7191 51.055 30.9849 51.055 26.6124C51.055 24.175 50.6284 21.7829 49.7766 19.4405C48.9171 17.0769 47.596 14.9723 45.8181 13.1331C44.0377 11.2913 41.7765 9.80934 39.0425 8.68535C36.3031 7.55917 33.069 7 29.3431 7H10.9721C4.98907 7 1.85742 10.2649 1.85742 16.4646V60.9049C1.85742 67.1127 5.11421 70.3695 11.322 70.3695C17.4776 70.3695 20.6991 67.0484 20.6991 60.73V25.0543H28.9932C30.6286 25.0543 31.7929 25.3328 32.4901 25.844C33.1071 26.2965 33.4381 27.1349 33.4381 28.4495C33.4381 29.9722 33.0809 31.0199 32.4091 31.647C31.7092 32.3002 30.7613 32.6319 29.518 32.6319H28.2933C25.6962 32.6319 23.7479 33.4452 22.5429 35.0977C21.3975 36.6685 20.8408 38.8317 20.8408 41.5716ZM55.4806 38.6458C55.4806 56.1232 69.6489 70.2915 87.1264 70.2915C104.604 70.2915 118.772 56.1232 118.772 38.6458C118.772 21.1683 104.604 7 87.1264 7C69.6489 7 55.4806 21.1683 55.4806 38.6458ZM87.1266 68.5087C103.619 68.5087 116.99 55.1386 116.99 38.6458C116.99 22.1529 103.619 8.78284 87.1266 8.78284C70.6338 8.78284 57.2637 22.1529 57.2637 38.6458C57.2637 55.1386 70.6338 68.5087 87.1266 68.5087ZM24.3083 102.383C25.0095 119.257 38.914 132.692 55.9263 132.692C72.9386 132.692 86.8432 119.257 87.5721 102.383V83.2174C87.5721 77.0633 82.5833 72.0745 76.4292 72.0745C70.2752 72.0745 65.2863 77.0633 65.2863 83.2174L65.178 99.7088L65.254 100.671C65.2755 100.942 65.2863 101.216 65.2863 101.492C65.2863 106.916 61.087 111.297 55.9263 111.297C50.7656 111.297 46.5663 106.916 46.5663 101.492C46.5663 101.216 46.5771 100.942 46.5986 100.671L46.5663 99.7088V83.2174C46.5663 77.0633 41.5775 72.0745 35.4234 72.0745C29.2694 72.0745 24.2806 77.0633 24.2806 83.2174L24.3083 102.383ZM26.0667 101.479C26.2984 117.789 39.595 130.909 55.9265 130.909C72.258 130.909 85.5547 117.789 85.7864 101.479L85.7894 101.263V83.2174C85.7894 78.048 81.5988 73.8574 76.4294 73.8574C71.26 73.8574 67.0694 78.048 67.0694 83.2174V101.492C67.0694 107.884 62.0893 113.08 55.9265 113.08C49.7638 113.08 44.7837 107.884 44.7837 101.492V83.2174C44.7837 78.048 40.593 73.8574 35.4236 73.8574C30.2542 73.8574 26.0636 78.048 26.0636 83.2174V101.263L26.0667 101.479ZM4.18787 105.493C4.64414 105.721 5.12387 105.837 5.61724 105.837H19.7687C20.856 105.837 21.7608 105.492 22.4222 104.792C23.0707 104.106 23.3901 103.203 23.3901 102.132V99.0681C23.3901 97.3311 23.092 95.7947 22.4887 94.4654C21.8909 93.1483 21.0893 92.0353 20.0857 91.1341C19.0891 90.2392 17.9573 89.5662 16.6961 89.1187C15.4488 88.6761 14.1595 88.4545 12.8323 88.4545C11.5035 88.4545 10.1906 88.6859 8.89748 89.147C7.58885 89.6137 6.42341 90.3109 5.40728 91.2356C4.38624 92.1647 3.5632 93.3231 2.93868 94.7031C2.3079 96.0969 1.99581 97.7026 1.99581 99.5138V102.132C1.99581 102.594 2.09739 103.052 2.2955 103.497C2.48422 103.922 2.73871 104.307 3.05659 104.648C3.38017 104.996 3.75871 105.278 4.18787 105.493ZM19.7689 104.054H5.61745C5.40511 104.054 5.1977 104.004 4.98539 103.898C4.74598 103.778 4.53952 103.624 4.36166 103.433C4.17812 103.236 4.03332 103.017 3.9249 102.773C3.82586 102.55 3.77887 102.339 3.77887 102.132V99.5136C3.77887 97.9448 4.04249 96.5884 4.56315 95.4379C5.09007 94.2736 5.77129 93.3148 6.60742 92.554C7.44844 91.7886 8.40941 91.2137 9.4965 90.8261C10.5992 90.4329 11.7097 90.2371 12.8325 90.2371C13.9567 90.2371 15.0444 90.4241 16.1001 90.7987C17.1417 91.1683 18.0714 91.7211 18.8947 92.4604C19.7111 93.1935 20.3674 94.1048 20.8654 95.202C21.3578 96.287 21.6075 97.5735 21.6075 99.0679V102.132C21.6075 102.77 21.444 103.232 21.1269 103.567C20.8225 103.889 20.3901 104.054 19.7689 104.054ZM17.9573 99.0402V100.433H7.51089V99.0681C7.51089 98.2089 7.65387 97.439 7.94652 96.7636C8.2368 96.0938 8.62547 95.5336 9.11353 95.092C9.58988 94.661 10.1319 94.3358 10.734 94.12C11.3225 93.909 11.9304 93.803 12.553 93.803C13.2085 93.803 13.8576 93.9121 14.4967 94.1288C15.1527 94.3512 15.7368 94.6825 16.2429 95.1212C16.7563 95.5661 17.1696 96.1209 17.4812 96.7776C17.8003 97.45 17.9573 98.207 17.9573 99.0402ZM15.8702 97.542C16.0245 97.867 16.121 98.2351 16.1575 98.6502H9.30903C9.34367 98.202 9.43571 97.8103 9.58208 97.4725C9.77467 97.028 10.0174 96.6782 10.3094 96.4141C10.613 96.1393 10.9531 95.9353 11.3353 95.7982C11.7311 95.6564 12.1354 95.5859 12.5527 95.5859C13.0116 95.5859 13.4675 95.6625 13.924 95.8173C14.3638 95.9664 14.7454 96.1828 15.075 96.4685C15.3973 96.7478 15.6619 97.1031 15.8702 97.542ZM119.253 116.179L131.545 128.471C135.2 132.126 141.127 132.126 144.782 128.471C148.437 124.816 148.437 118.889 144.782 115.234L106.962 77.4136C103.306 73.7583 97.3799 73.7583 93.7246 77.4136C90.0693 81.0689 90.0693 86.9954 93.7246 90.6507L106.016 102.942L93.859 115.099C90.2037 118.755 90.2037 124.681 93.859 128.336C97.5143 131.992 103.441 131.992 107.096 128.336L119.253 116.179ZM92.5981 129.597C96.9497 133.949 104.005 133.949 108.357 129.597L119.253 118.701L130.284 129.732C134.635 134.083 141.691 134.083 146.042 129.732C150.394 125.38 150.394 118.325 146.042 113.973L108.222 76.1532C103.871 71.8016 96.8153 71.8016 92.4637 76.1532C88.1122 80.5048 88.1122 87.56 92.4637 91.9116L103.495 102.942L92.5981 113.839C88.2465 118.191 88.2465 125.246 92.5981 129.597ZM21.6075 84.8609V75.6681C21.6075 75.0585 21.4381 74.6409 21.1024 74.3457C20.7281 74.0166 20.2972 73.8574 19.7689 73.8574C19.2427 73.8574 18.8188 74.0151 18.4551 74.3406C18.1256 74.6354 17.9582 75.0554 17.9582 75.6681V83.0502H14.281V76.7545C14.281 76.2182 14.1341 75.8552 13.8428 75.5968C13.5145 75.3056 13.1448 75.1666 12.6932 75.1666C12.2416 75.1666 11.8719 75.3056 11.5436 75.5968C11.2522 75.8552 11.1053 76.2182 11.1053 76.7545V83.0502H7.45602V75.6681C7.45602 75.0585 7.28665 74.6409 6.95095 74.3457C6.5767 74.0166 6.1457 73.8574 5.61745 73.8574C5.08919 73.8574 4.6582 74.0166 4.28394 74.3457C3.94825 74.6409 3.77887 75.0585 3.77887 75.6681V84.8609C3.77887 86.1473 4.28569 86.6438 5.61745 86.6438H19.7689C21.1007 86.6438 21.6075 86.1473 21.6075 84.8609ZM17.2661 73.012C16.537 73.6643 16.1751 74.5722 16.1751 75.6681V81.2674H16.0637V76.7545C16.0637 75.7308 15.7184 74.8774 15.0255 74.2629C14.3695 73.6812 13.5785 73.3838 12.693 73.3838C11.8074 73.3838 11.0164 73.6812 10.3604 74.2629C9.6675 74.8774 9.32225 75.7308 9.32225 76.7545V81.2674H9.23868V75.6681C9.23868 74.5691 8.86948 73.6588 8.12803 73.0069C7.42514 72.3888 6.57471 72.0745 5.61724 72.0745C4.65977 72.0745 3.80935 72.3888 3.10645 73.0069C2.365 73.6588 1.99581 74.5691 1.99581 75.6681V84.861C1.99581 87.1403 3.30898 88.4267 5.61724 88.4267H19.7687C22.077 88.4267 23.3901 87.1403 23.3901 84.861V75.6681C23.3901 74.5691 23.0209 73.6588 22.2795 73.0069C21.5766 72.3888 20.7262 72.0745 19.7687 72.0745C18.8092 72.0745 17.9609 72.3903 17.2661 73.012ZM135.265 96.1431C140.434 96.1431 144.625 91.9524 144.625 86.7831C144.625 81.6137 140.434 77.423 135.265 77.423C130.095 77.423 125.905 81.6137 125.905 86.7831C125.905 91.9524 130.095 96.1431 135.265 96.1431ZM124.121 86.7828C124.121 92.9369 129.11 97.9257 135.264 97.9257C141.418 97.9257 146.407 92.9369 146.407 86.7828C146.407 80.6288 141.418 75.64 135.264 75.64C129.11 75.64 124.121 80.6288 124.121 86.7828ZM87.127 50.68C80.9642 50.68 75.9841 45.4833 75.9841 39.0914C75.9841 32.6995 80.9642 27.5028 87.127 27.5028C93.2897 27.5028 98.2698 32.6995 98.2698 39.0914C98.2698 45.4833 93.2897 50.68 87.127 50.68ZM96.4872 39.0916C96.4872 44.5154 92.2879 48.8973 87.1272 48.8973C81.9665 48.8973 77.7671 44.5154 77.7671 39.0916C77.7671 33.6677 81.9665 29.2859 87.1272 29.2859C92.2879 29.2859 96.4872 33.6677 96.4872 39.0916ZM138.619 10.3548C133.449 10.3548 129.259 14.5454 129.259 19.7148V60.7206C129.259 65.89 133.449 70.0806 138.619 70.0806C143.788 70.0806 147.979 65.89 147.979 60.7206V19.7148C147.979 14.5454 143.788 10.3548 138.619 10.3548ZM149.761 19.7148C149.761 13.5608 144.773 8.57193 138.618 8.57193C132.464 8.57193 127.476 13.5608 127.476 19.7148V60.7206C127.476 66.8746 132.464 71.8635 138.618 71.8635C144.773 71.8635 149.761 66.8746 149.761 60.7206V19.7148ZM23.7131 45.7356L34.0648 65.0313C34.801 66.3986 35.7417 67.3779 36.8925 67.9917C38.0789 68.6244 39.2625 68.9366 40.4534 68.9366C41.4546 68.9366 42.4585 68.7516 43.4695 68.3791C44.4829 68.0058 45.3855 67.4882 46.1813 66.8249C46.9609 66.1753 47.5839 65.3835 48.0542 64.4429C48.5165 63.5183 48.7475 62.5177 48.7475 61.4298C48.7475 60.0843 48.2382 58.4763 47.2249 56.6599L38.5154 42.9869L39.5041 42.5834C42.1951 41.485 44.495 39.557 46.412 36.7788C48.3163 34.0189 49.2723 30.6381 49.2723 26.6124C49.2723 24.3841 48.8825 22.198 48.1013 20.0497C47.3278 17.9226 46.1411 16.0323 44.5364 14.3722C42.9342 12.7147 40.8797 11.3682 38.3648 10.3343C35.8553 9.3026 32.8491 8.78284 29.3433 8.78284H10.9723C5.99093 8.78284 3.64049 11.2333 3.64049 16.4646V60.9049C3.64049 66.1281 6.09906 68.5866 11.3222 68.5866C16.4808 68.5866 18.9164 66.0757 18.9164 60.73V23.2715H28.9934C30.9739 23.2715 32.4922 23.6345 33.5447 24.4063C34.6773 25.2369 35.2211 26.6147 35.2211 28.4495C35.2211 30.4259 34.7035 31.9444 33.6257 32.9503C32.576 33.9301 31.1911 34.4148 29.5182 34.4148H28.2935C26.225 34.4148 24.8199 35.0012 23.9836 36.1481C23.0878 37.3767 22.6239 39.1793 22.6239 41.5716C22.6239 42.4736 22.7418 43.2859 22.9748 44.0107C23.2165 44.7627 23.4656 45.3397 23.7131 45.7356Z" fill="url(#paint0_linear_236_766)"/>
<path fill-rule="evenodd" clip-rule="evenodd" d="M25.6915 46.0664C25.9539 46.8829 26.231 47.5244 26.5226 47.991L36.8453 67.2368C37.6618 68.7532 38.7262 69.8613 40.0384 70.5611C41.3506 71.261 42.6774 71.6109 44.0188 71.6109C45.1269 71.6109 46.235 71.4068 47.3431 70.9985C48.4512 70.5903 49.4426 70.0216 50.3174 69.2926C51.1922 68.5636 51.8921 67.6742 52.417 66.6245C52.9418 65.5747 53.2043 64.4374 53.2043 63.2127C53.2043 61.6964 52.6502 59.9468 51.5421 57.9638L43.4064 45.1916C46.2641 44.0252 48.699 41.984 50.7111 39.0679C52.7231 36.1519 53.7292 32.5944 53.7292 28.3953C53.7292 26.0624 53.3209 23.7734 52.5044 21.528C51.6879 19.2826 50.4341 17.2852 48.7428 15.5355C47.0514 13.7859 44.8936 12.3717 42.2692 11.2927C39.6447 10.2138 36.5246 9.67432 32.9087 9.67432H14.5377C9.0555 9.67432 6.31445 12.532 6.31445 18.2475V62.6878C6.31445 68.4033 9.17214 71.261 14.8876 71.261C20.5447 71.261 23.3733 68.345 23.3733 62.5129V25.9458H32.5588C34.3667 25.9458 35.7081 26.2665 36.5829 26.9081C37.4577 27.5496 37.8951 28.6577 37.8951 30.2324C37.8951 31.982 37.4577 33.265 36.5829 34.0815C35.7081 34.898 34.5417 35.3063 33.0836 35.3063H31.8589C29.5261 35.3063 27.8494 36.0061 26.8288 37.4058C25.8081 38.8055 25.2978 40.7884 25.2978 43.3545C25.2978 44.346 25.4291 45.2499 25.6915 46.0664ZM121.447 40.4287C121.447 57.4139 107.678 71.1831 90.6929 71.1831C73.7078 71.1831 59.9386 57.4139 59.9386 40.4287C59.9386 23.4436 73.7078 9.67437 90.6929 9.67437C107.678 9.67437 121.447 23.4436 121.447 40.4287ZM26.0639 77.3927C26.0519 76.5664 25.7827 75.922 25.2565 75.4592C24.7179 74.9857 24.0772 74.7489 23.3344 74.7489C22.5915 74.7489 21.9554 74.9857 21.4261 75.4592C20.8968 75.9328 20.6322 76.5967 20.6322 77.451V83.9418H18.7379V78.5375C18.7379 77.7575 18.4918 77.1493 17.9997 76.7128C17.5076 76.2764 16.9272 76.0582 16.2586 76.0582C15.59 76.0582 15.0097 76.2764 14.5175 76.7128C14.0254 77.1493 13.7793 77.7575 13.7793 78.5375V83.9418H11.9129V77.451C11.9129 76.5967 11.6436 75.9328 11.105 75.4592C10.5665 74.9857 9.92576 74.7489 9.1829 74.7489C8.44003 74.7489 7.79933 74.9857 7.26075 75.4592C6.72218 75.9328 6.45289 76.5967 6.45289 77.451V86.6439C6.45289 88.4268 7.36288 89.3182 9.1829 89.3182H23.3344C25.1317 89.3182 26.0416 88.4488 26.0639 86.7101V77.3927ZM26.0639 100.741C26.0518 99.1712 25.778 97.7964 25.2426 96.6166C24.6947 95.4095 23.9658 94.3973 23.0558 93.5802C22.1458 92.7631 21.1151 92.1502 19.9636 91.7416C18.8122 91.3331 17.6236 91.1288 16.3979 91.1288C15.1722 91.1288 13.9604 91.3423 12.7625 91.7695C11.5647 92.1966 10.5015 92.8327 9.5729 93.6777C8.64432 94.5227 7.89218 95.5813 7.31647 96.8534C6.74075 98.1256 6.45289 99.6066 6.45289 101.297V103.915C6.45289 104.25 6.52718 104.584 6.67575 104.918C6.82432 105.252 7.02396 105.554 7.27468 105.823C7.5254 106.093 7.81789 106.311 8.15218 106.478C8.48647 106.645 8.83004 106.729 9.1829 106.729H23.3344C24.1886 106.729 24.8572 106.473 25.3401 105.963C25.8229 105.452 26.0644 104.77 26.0644 103.915V102.383H26.0639V100.741ZM49.2423 85.0003V102.383H49.2762C49.2572 102.623 49.2459 102.865 49.2423 103.109V103.275L49.2411 103.275C49.2411 109.183 53.8308 113.972 59.4925 113.972C65.1543 113.972 69.744 109.183 69.744 103.275C69.744 102.974 69.7321 102.677 69.7089 102.383H69.7446V85.0003C69.7446 79.3386 74.3343 74.7489 79.996 74.7489C85.6577 74.7489 90.2475 79.3386 90.2475 85.0003V102.629C90.2476 102.658 90.2478 102.687 90.2479 102.716C90.248 102.754 90.2481 102.791 90.2481 102.829C90.2481 102.889 90.2479 102.949 90.2476 103.009L90.2475 103.03V103.275H90.2449C90.0066 120.054 76.3301 133.583 59.4938 133.583C42.6574 133.583 28.9809 120.054 28.7426 103.275H28.7394V102.829V85.0003C28.7394 79.3386 33.3291 74.7489 38.9909 74.7489C44.6526 74.7489 49.2423 79.3386 49.2423 85.0003ZM20.6316 100.823C20.6316 100.117 20.5016 99.4907 20.2416 98.9428C19.9816 98.395 19.6426 97.94 19.2248 97.5778C18.8069 97.2157 18.3241 96.9417 17.7762 96.756C17.2283 96.5703 16.6758 96.4775 16.1187 96.4775C15.5987 96.4775 15.0926 96.5657 14.6005 96.7421C14.1083 96.9185 13.6673 97.1832 13.2773 97.536C12.8873 97.8889 12.5715 98.3439 12.3301 98.901C12.0887 99.4582 11.968 100.108 11.968 100.851V101.325H20.6316V100.823ZM122.819 119.223L134.481 130.884C138.484 134.888 144.975 134.888 148.978 130.884C152.982 126.881 152.982 120.39 148.978 116.387L111.158 78.5663C107.155 74.5629 100.664 74.5629 96.6604 78.5663C92.6569 82.5698 92.6569 89.0606 96.6603 93.0641L108.322 104.725L96.7947 116.252C92.7913 120.256 92.7913 126.747 96.7947 130.75C100.798 134.754 107.289 134.754 111.292 130.75L122.819 119.223ZM149.081 88.5662C149.081 94.228 144.492 98.8177 138.83 98.8177C133.168 98.8177 128.579 94.228 128.579 88.5662C128.579 82.9045 133.168 78.3148 138.83 78.3148C144.492 78.3148 149.081 82.9045 149.081 88.5662ZM90.6924 51.5718C96.3541 51.5718 100.944 46.7825 100.944 40.8746C100.944 34.9667 96.3541 30.1774 90.6924 30.1774C85.0307 30.1774 80.4409 34.9667 80.4409 40.8746C80.4409 46.7825 85.0307 51.5718 90.6924 51.5718ZM131.933 21.4978C131.933 15.836 136.522 11.2463 142.184 11.2463C147.846 11.2463 152.436 15.836 152.436 21.4978V62.5035C152.436 68.1653 147.846 72.755 142.184 72.755C136.522 72.755 131.933 68.1653 131.933 62.5035V21.4978Z" fill="url(#paint1_linear_236_766)"/>
<path d="M141.812 114.061C141.812 111.107 144.206 108.712 147.16 108.712H163.652C166.606 108.712 169 111.107 169 114.061V130.552C169 133.506 166.606 135.901 163.652 135.901H147.16C144.206 135.901 141.812 133.506 141.812 130.552V114.061Z" fill="url(#paint2_linear_236_766)"/>
<path fill-rule="evenodd" clip-rule="evenodd" d="M163.652 110.495H147.16C145.191 110.495 143.594 112.091 143.594 114.061V130.552C143.594 132.521 145.191 134.118 147.16 134.118H163.652C165.621 134.118 167.217 132.521 167.217 130.552V114.061C167.217 112.091 165.621 110.495 163.652 110.495ZM147.16 108.712C144.206 108.712 141.812 111.107 141.812 114.061V130.552C141.812 133.506 144.206 135.901 147.16 135.901H163.652C166.606 135.901 169 133.506 169 130.552V114.061C169 111.107 166.606 108.712 163.652 108.712H147.16Z" fill="url(#paint3_linear_236_766)"/>
<path d="M160.456 128.481C159.437 128.481 158.649 128.196 158.092 127.624C157.539 127.053 157.263 126.231 157.263 125.157V119.716C157.263 118.583 157.525 117.715 158.051 117.112C158.581 116.504 159.383 116.2 160.456 116.2C161.535 116.2 162.336 116.504 162.862 117.112C163.387 117.715 163.65 118.583 163.65 119.716V125.157C163.65 126.231 163.373 127.053 162.821 127.624C162.268 128.196 161.48 128.481 160.456 128.481ZM160.456 126.261C160.644 126.261 160.79 126.176 160.895 126.007C161 125.838 161.053 125.648 161.053 125.438V119.483C161.053 119.2 161.021 118.953 160.957 118.743C160.897 118.528 160.73 118.421 160.456 118.421C160.182 118.421 160.013 118.528 159.949 118.743C159.89 118.953 159.86 119.2 159.86 119.483V125.438C159.86 125.648 159.913 125.838 160.018 126.007C160.127 126.176 160.274 126.261 160.456 126.261Z" fill="white"/>
<path d="M155.18 128.365C154.616 128.365 154.159 127.908 154.159 127.344V127.344C154.159 126.78 154.616 126.323 155.18 126.323H155.591C156.155 126.323 156.613 126.78 156.613 127.344V127.344C156.613 127.908 156.155 128.365 155.591 128.365H155.18Z" fill="white"/>
<path d="M147.846 128.372C147.528 128.372 147.271 128.114 147.271 127.796V127.796C147.271 127.197 147.362 126.661 147.545 126.185C147.732 125.706 147.972 125.262 148.264 124.856C148.557 124.445 148.865 124.043 149.19 123.65C149.505 123.266 149.804 122.873 150.087 122.471C150.375 122.064 150.608 121.626 150.786 121.155C150.969 120.68 151.06 120.148 151.06 119.558C151.06 119.275 151.017 119.033 150.93 118.832C150.848 118.626 150.674 118.524 150.409 118.524C150.007 118.524 149.806 118.882 149.806 119.599V119.778C149.806 120.493 149.226 121.073 148.511 121.073V121.073C147.817 121.073 147.232 120.526 147.257 119.833C147.278 119.256 147.348 118.684 147.517 118.126C147.7 117.518 148.022 117.057 148.484 116.742C148.95 116.422 149.603 116.262 150.444 116.262C151.444 116.262 152.221 116.543 152.774 117.105C153.331 117.667 153.61 118.469 153.61 119.51C153.61 120.219 153.518 120.84 153.336 121.374C153.153 121.904 152.911 122.389 152.609 122.827C152.308 123.261 151.976 123.695 151.616 124.129C151.36 124.436 151.111 124.748 150.869 125.068C150.631 125.388 150.421 125.731 150.238 126.096H152.39C153.018 126.096 153.528 126.606 153.528 127.234V127.234C153.528 127.862 153.018 128.372 152.39 128.372H147.846Z" fill="white"/>
<defs>
<linearGradient id="paint0_linear_236_766" x1="66.1254" y1="-33.3833" x2="-40.7787" y2="90.4281" gradientUnits="userSpaceOnUse">
<stop stop-color="#4A2FEE"/>
<stop offset="0.28" stop-color="#9F2AE6"/>
<stop offset="1" stop-color="#0F73BB"/>
</linearGradient>
<linearGradient id="paint1_linear_236_766" x1="78.9543" y1="-34.2283" x2="-29.4549" y2="91.334" gradientUnits="userSpaceOnUse">
<stop stop-color="#4A2FEE"/>
<stop offset="0.275663" stop-color="#9F2AE6"/>
<stop offset="1" stop-color="#0F73BB"/>
</linearGradient>
<linearGradient id="paint2_linear_236_766" x1="155.328" y1="99.1024" x2="131.345" y2="122.715" gradientUnits="userSpaceOnUse">
<stop stop-color="#4A2FEE"/>
<stop offset="0.275663" stop-color="#9F2AE6"/>
<stop offset="1" stop-color="#0F73BB"/>
</linearGradient>
<linearGradient id="paint3_linear_236_766" x1="180.716" y1="125.948" x2="160.811" y2="98.345" gradientUnits="userSpaceOnUse">
<stop stop-color="#EEF1F6"/>
<stop offset="1" stop-color="#FCFDFD"/>
</linearGradient>
</defs>
</svg>
