<svg xmlns="http://www.w3.org/2000/svg" width="169" height="142" viewBox="0 0 169 142"><defs><linearGradient id="a" x1="85.756%" x2="0%" y1="10.827%" y2="95.434%"><stop offset="0%" stop-color="#EE582F"/><stop offset="47.935%" stop-color="#E62A44"/><stop offset="100%" stop-color="#BB0F80"/></linearGradient><linearGradient id="b" x1="93.136%" x2="4.926%" y1="8.76%" y2="95.609%"><stop offset="0%" stop-color="#EE582F"/><stop offset="27.566%" stop-color="#E62A44"/><stop offset="100%" stop-color="#BB0F80"/></linearGradient></defs><g fill="none" fill-rule="evenodd"><path stroke="url(#a)" stroke-width="2" d="M3.243 108.626c-.395 0-.78-.094-1.153-.282a3.42 3.42 0 0 1-.982-.735 3.668 3.668 0 0 1-.67-1.016 2.758 2.758 0 0 1-.25-1.125v-2.94c0-1.896.322-3.558.966-4.986.645-1.428 1.486-2.616 2.525-3.564a10.47 10.47 0 0 1 3.57-2.142 12 12 0 0 1 4.067-.72 11.8 11.8 0 0 1 3.99.689 10.265 10.265 0 0 1 3.46 2.063c1.018.917 1.834 2.053 2.447 3.408s.92 2.94.92 4.753v3.439c0 .959-.27 1.725-.811 2.298-.54.573-1.288.86-2.244.86H3.243zm12.811-6.629c0-.792-.145-1.495-.436-2.11a4.61 4.61 0 0 0-1.138-1.532 4.796 4.796 0 0 0-1.62-.922 5.728 5.728 0 0 0-1.855-.313c-.582 0-1.149.099-1.7.297a4.397 4.397 0 0 0-1.48.891c-.436.396-.79.907-1.06 1.532s-.405 1.355-.405 2.189v.531h9.694v-.563zm78.144 2.737c-.267 18.775-15.617 33.914-34.513 33.914-18.897 0-34.247-15.139-34.514-33.914h-.004V84.315c0-6.351 5.149-11.5 11.5-11.5h.012c6.351 0 11.5 5.149 11.5 11.5v19.421h.04c-.027.33-.04.662-.04.998 0 6.61 5.151 11.97 11.506 11.97 6.354 0 11.505-5.36 11.505-11.97 0-.336-.013-.669-.04-.998h.04V84.315c0-6.351 5.149-11.5 11.5-11.5h.012c6.351 0 11.5 5.149 11.5 11.5v20.419h-.004zm36.543 17.877l-12.87 12.87c-4.492 4.491-11.773 4.491-16.264 0l-.008-.008c-4.491-4.49-4.491-11.772 0-16.263l12.87-12.87-12.985-12.986c-4.49-4.49-4.49-11.772 0-16.263l.009-.008c4.49-4.492 11.772-4.492 16.263 0l42.278 42.277c4.49 4.491 4.49 11.773 0 16.264l-.008.008c-4.491 4.49-11.773 4.49-16.264 0l-13.02-13.021zM22.132 86.14c0 2-1.018 3.001-3.054 3.001H3.243c-2.037 0-3.055-1-3.055-3.001V75.823c0-.959.302-1.704.904-2.236.603-.531 1.32-.797 2.15-.797.832 0 1.55.266 2.152.797.602.532.904 1.277.904 2.236v7.285h2.088v-6.066c0-.875.275-1.558.826-2.048.55-.49 1.2-.734 1.948-.734s1.398.245 1.948.734c.551.49.827 1.173.827 2.048v6.066h2.12v-7.285c0-.959.295-1.704.887-2.236.593-.531 1.304-.797 2.136-.797.83 0 1.548.266 2.15.797.603.532.904 1.277.904 2.236V86.14zM148.73 99.747c-6.355 0-11.506-5.136-11.506-11.471 0-6.336 5.151-11.471 11.506-11.471 6.354 0 11.506 5.135 11.506 11.47 0 6.336-5.152 11.472-11.506 11.472zM94.702 68.825c-19.063 0-34.517-15.407-34.517-34.412C60.185 15.407 75.639 0 94.702 0c19.063 0 34.517 15.407 34.517 34.413 0 19.005-15.454 34.412-34.517 34.412zm0-21.944c6.354 0 11.506-5.36 11.506-11.97s-5.152-11.97-11.506-11.97-11.506 5.36-11.506 11.97 5.152 11.97 11.506 11.97zm57.787-45.122h.011c6.351 0 11.5 5.149 11.5 11.5v45.825c0 6.351-5.149 11.5-11.5 11.5h-.011c-6.352 0-11.5-5.149-11.5-11.5V13.26c0-6.351 5.148-11.5 11.5-11.5zM22.68 42.874c-.328-.522-.639-1.24-.933-2.153-.295-.914-.442-1.925-.442-3.035 0-2.87.573-5.09 1.718-6.656 1.146-1.566 3.028-2.35 5.646-2.35h1.374c1.637 0 2.946-.456 3.928-1.37.982-.913 1.473-2.349 1.473-4.307 0-1.762-.491-3.001-1.473-3.72-.982-.717-2.487-1.076-4.517-1.076H19.146v40.917c0 6.525-3.175 9.788-9.524 9.788C3.207 68.912 0 65.715 0 59.32V9.593C0 3.198 3.076 0 9.23 0h20.618c4.058 0 7.56.604 10.506 1.81 2.945 1.208 5.367 2.79 7.266 4.748a18.79 18.79 0 0 1 4.221 6.706 22.266 22.266 0 0 1 1.375 7.684c0 4.698-1.13 8.68-3.387 11.942-2.259 3.263-4.991 5.547-8.199 6.852l9.131 14.292c1.244 2.218 1.866 4.176 1.866 5.873 0 1.37-.295 2.643-.884 3.817a9.186 9.186 0 0 1-2.356 2.986 11.245 11.245 0 0 1-3.338 1.909 10.757 10.757 0 0 1-3.731.685c-1.506 0-2.995-.392-4.468-1.175-1.473-.783-2.667-2.023-3.584-3.72L22.681 42.875z" transform="translate(1 1)"/><path fill="url(#b)" d="M7.243 110.626c-.395 0-.78-.094-1.153-.282a3.42 3.42 0 0 1-.982-.735 3.668 3.668 0 0 1-.67-1.016 2.758 2.758 0 0 1-.25-1.125v-2.94c0-1.896.322-3.558.966-4.986.645-1.428 1.486-2.616 2.525-3.564a10.47 10.47 0 0 1 3.57-2.142 12 12 0 0 1 4.067-.72 11.8 11.8 0 0 1 3.99.689 10.265 10.265 0 0 1 3.46 2.063c1.018.917 1.834 2.053 2.447 3.408s.92 2.94.92 4.753v3.439c0 .959-.27 1.725-.811 2.298-.54.573-1.288.86-2.244.86H7.243zm12.811-6.629c0-.792-.145-1.495-.436-2.11a4.61 4.61 0 0 0-1.138-1.532 4.796 4.796 0 0 0-1.62-.922 5.728 5.728 0 0 0-1.855-.313c-.582 0-1.149.099-1.7.297a4.397 4.397 0 0 0-1.48.891c-.436.396-.79.907-1.06 1.532s-.405 1.355-.405 2.189v.531h9.694v-.563zm78.144 2.737c-.267 18.775-15.617 33.914-34.513 33.914-18.897 0-34.247-15.139-34.514-33.914h-.004V86.315c0-6.351 5.149-11.5 11.5-11.5h.012c6.351 0 11.5 5.149 11.5 11.5v19.421h.04c-.027.33-.04.662-.04.998 0 6.61 5.151 11.97 11.506 11.97 6.354 0 11.505-5.36 11.505-11.97 0-.336-.013-.669-.04-.998h.04V86.315c0-6.351 5.149-11.5 11.5-11.5h.012c6.351 0 11.5 5.149 11.5 11.5v20.419h-.004zm36.543 17.877l-12.87 12.87c-4.492 4.491-11.773 4.491-16.264 0l-.008-.008c-4.491-4.49-4.491-11.772 0-16.263l12.87-12.87-12.985-12.986c-4.49-4.49-4.49-11.772 0-16.263l.009-.008c4.49-4.492 11.772-4.492 16.263 0l42.278 42.277c4.49 4.491 4.49 11.773 0 16.264l-.008.008c-4.491 4.49-11.773 4.49-16.264 0l-13.02-13.021zM26.132 88.14c0 2-1.018 3.001-3.054 3.001H7.243c-2.037 0-3.055-1-3.055-3.001V77.823c0-.959.302-1.704.904-2.236.603-.531 1.32-.797 2.15-.797.832 0 1.55.266 2.152.797.602.532.904 1.277.904 2.236v7.285h2.088v-6.066c0-.875.275-1.558.826-2.048.55-.49 1.2-.734 1.948-.734s1.398.245 1.948.734c.551.49.827 1.173.827 2.048v6.066h2.12v-7.285c0-.959.295-1.704.887-2.236.593-.531 1.304-.797 2.136-.797.83 0 1.548.266 2.15.797.603.532.904 1.277.904 2.236V88.14zM153.73 99.747c-6.355 0-11.506-5.136-11.506-11.471s5.151-11.471 11.506-11.471c6.354 0 11.506 5.136 11.506 11.47 0 6.336-5.152 11.472-11.506 11.472zM98.702 70.825c-19.063 0-34.517-15.407-34.517-34.412C64.185 17.407 79.639 2 98.702 2c19.063 0 34.517 15.407 34.517 34.413 0 19.005-15.454 34.412-34.517 34.412zm0-21.944c6.354 0 11.506-5.36 11.506-11.97s-5.152-11.97-11.506-11.97-11.506 5.36-11.506 11.97 5.152 11.97 11.506 11.97zm57.787-45.122h.011c6.351 0 11.5 5.149 11.5 11.5v45.825c0 6.351-5.149 11.5-11.5 11.5h-.011c-6.352 0-11.5-5.149-11.5-11.5V15.26c0-6.351 5.148-11.5 11.5-11.5zM26.68 44.874c-.328-.522-.639-1.24-.933-2.153-.295-.914-.442-1.925-.442-3.035 0-2.87.573-5.09 1.718-6.656 1.146-1.566 3.028-2.35 5.646-2.35h1.374c1.637 0 2.946-.456 3.928-1.37.982-.913 1.473-2.349 1.473-4.307 0-1.762-.491-3.001-1.473-3.72-.982-.717-2.487-1.076-4.517-1.076H23.146v40.917c0 6.525-3.175 9.788-9.524 9.788C7.207 70.912 4 67.715 4 61.32V11.593C4 5.198 7.076 2 13.23 2h20.618c4.058 0 7.56.604 10.506 1.81 2.945 1.208 5.367 2.79 7.266 4.748a18.79 18.79 0 0 1 4.221 6.706 22.266 22.266 0 0 1 1.375 7.684c0 4.698-1.13 8.68-3.387 11.942-2.259 3.263-4.991 5.547-8.199 6.852l9.131 14.292c1.244 2.218 1.866 4.176 1.866 5.873 0 1.37-.295 2.643-.884 3.817a9.186 9.186 0 0 1-2.356 2.986 11.245 11.245 0 0 1-3.338 1.909 10.757 10.757 0 0 1-3.731.685c-1.506 0-2.995-.392-4.468-1.175-1.473-.783-2.667-2.023-3.584-3.72L26.681 44.875z" transform="translate(1 1)"/></g></svg>