<svg width="60" height="60" viewBox="0 0 60 60" fill="none" xmlns="http://www.w3.org/2000/svg">
<path fill-rule="evenodd" clip-rule="evenodd" d="M12.0488 23.0081C12.028 23.3703 12.1469 23.7263 12.3794 23.9976L12.3689 24.0304C12.6013 24.3018 12.9282 24.4664 13.2777 24.4879C13.6273 24.5095 13.9707 24.3862 14.2325 24.1453L24.195 14.9542L30.3984 18.565C30.915 18.8677 31.563 18.7759 31.9822 18.3407L40.8835 9.12231V11.1958C40.8835 11.9511 41.4744 12.5635 42.2034 12.5635C42.9323 12.5635 43.5232 11.9511 43.5232 11.1958V5.81791C43.5232 5.45517 43.3842 5.10728 43.1367 4.85079C42.8891 4.59429 42.5534 4.4502 42.2034 4.4502H37.0136C36.2847 4.4502 35.6937 5.06254 35.6937 5.81791C35.6937 6.57327 36.2847 7.18562 37.0136 7.18562H39.0198L30.8102 15.6764L24.6701 12.1094C24.1934 11.8109 23.5871 11.8547 23.1549 12.2188L12.4903 22.0663C12.2284 22.3072 12.0696 22.646 12.0488 23.0081ZM9.63406 37.784L5.04617 38.9657C4.58143 39.1049 4.08048 38.9695 3.74059 38.6128C3.4007 38.2561 3.27635 37.7353 3.41651 37.2555C3.55668 36.7757 3.93889 36.4138 4.41262 36.3124L10.294 34.8298C10.9958 34.6575 11.7011 35.1009 11.8778 35.8255L12.1629 37.0126L12.2949 36.8759C14.4157 34.6658 17.3015 33.4267 20.3092 33.4347H35.3294C37.1543 33.4281 38.7976 34.5779 39.4738 36.3343L46.3372 29.2222C47.4358 27.8955 49.159 27.3183 50.799 27.7277C52.4391 28.1371 53.7197 29.4641 54.1148 31.1636C54.5099 32.8631 53.9529 34.6488 52.6726 35.7872L40.3502 48.5726C38.5759 50.4214 36.1615 51.4576 33.6453 51.4502H18.4192L16.2651 53.6823L16.1912 53.7425L16.4605 54.875C16.6267 55.6022 16.1988 56.3331 15.4996 56.5162L9.61822 58.0317C9.15643 58.1629 8.66229 58.0247 8.32696 57.6705C7.99164 57.3163 7.86774 56.8016 8.0032 56.3257C8.13866 55.8498 8.51225 55.4872 8.9794 55.3783L13.5673 54.1966L9.63406 37.784ZM20.3092 36.1484C18.0015 36.1412 15.7868 37.0907 14.1586 38.7854L12.9074 40.0874L15.4362 50.6298L16.9198 49.0924C17.1678 48.8361 17.504 48.6924 17.8543 48.6931H33.6453C35.4598 48.6988 37.2011 47.9522 38.4813 46.6196L50.8195 33.8616C51.5484 33.1062 51.5484 31.8815 50.8195 31.1262C50.0906 30.3708 48.9087 30.3708 48.1797 31.1262L38.6766 41.105C37.8307 42.1104 36.6061 42.687 35.3189 42.6861H25.895C25.166 42.6861 24.5751 42.0737 24.5751 41.3184C24.5751 40.563 25.166 39.9507 25.895 39.9507H35.3189C36.3321 39.9507 37.1535 39.0995 37.1535 38.0495C37.1535 36.9996 36.3321 36.1484 35.3189 36.1484H20.3092ZM8.10827 51.4996C7.97911 50.9613 8.17648 50.3955 8.60795 50.0672C9.03941 49.7389 9.61951 49.7131 10.0765 50.002C10.5335 50.2909 10.7768 50.8371 10.6926 51.3849C10.6083 51.9327 10.2131 52.3735 9.69212 52.5008C9.58847 52.5271 9.48206 52.54 9.37535 52.5391C8.77438 52.5305 8.25428 52.1038 8.10827 51.4996ZM40.9416 16.9893V29.2276C40.9416 29.983 40.3506 30.5953 39.6217 30.5953C38.8927 30.5953 38.3018 29.983 38.3018 29.2276V16.9893C38.3018 16.2339 38.8927 15.6216 39.6217 15.6216C40.3506 15.6216 40.9416 16.2339 40.9416 16.9893ZM33.4816 22.6682C33.4816 21.9129 32.8907 21.3005 32.1617 21.3005C31.4328 21.3005 30.8419 21.9129 30.8419 22.6682V29.2333C30.8419 29.9886 31.4328 30.601 32.1617 30.601C32.8907 30.601 33.4816 29.9886 33.4816 29.2333V22.6682ZM24.7123 19.506C25.4413 19.506 26.0322 20.1183 26.0322 20.8737V29.2277C26.0322 29.7163 25.7806 30.1678 25.3722 30.4121C24.9639 30.6565 24.4607 30.6565 24.0524 30.4121C23.644 30.1678 23.3924 29.7163 23.3924 29.2277V20.8627C23.3982 20.1116 23.9875 19.5059 24.7123 19.506ZM18.5829 27.0557C18.5829 26.3004 17.9919 25.688 17.263 25.688C16.534 25.688 15.9431 26.3004 15.9431 27.0557V29.2441C15.9431 29.9995 16.534 30.6118 17.263 30.6118C17.9919 30.6118 18.5829 29.9995 18.5829 29.2441V27.0557Z" fill="url(#paint0_linear_236_930)"/>
<defs>
<linearGradient id="paint0_linear_236_930" x1="28.6534" y1="-14.5053" x2="-18.5497" y2="29.586" gradientUnits="userSpaceOnUse">
<stop stop-color="#4A2FEE"/>
<stop offset="0.275663" stop-color="#9F2AE6"/>
<stop offset="1" stop-color="#0F73BB"/>
</linearGradient>
</defs>
</svg>
