<svg xmlns="http://www.w3.org/2000/svg" width="49" height="50" viewBox="0 0 49 50"><defs><linearGradient id="a" x1="93.136%" x2="4.926%" y1="8.76%" y2="95.609%"><stop offset="0%" stop-color="#EE582F"/><stop offset="27.566%" stop-color="#E62A44"/><stop offset="100%" stop-color="#BB0F80"/></linearGradient></defs><path fill="url(#a)" d="M249.624 676.18l4.418-1.102 3.788 15.301-4.418 1.102a1.278 1.278 0 0 0-.628 2.137c.322.33.798.459 1.243.337l5.664-1.413a1.275 1.275 0 0 0 .926-1.53l-.26-1.056.071-.056 2.075-2.081h14.663a9.056 9.056 0 0 0 6.458-2.683l11.867-11.92a4.349 4.349 0 0 0 1.389-4.31 4.334 4.334 0 0 0-3.194-3.204 4.319 4.319 0 0 0-4.297 1.393l-6.61 6.63a4.281 4.281 0 0 0-3.99-2.702h-14.466a10.828 10.828 0 0 0-7.718 3.208l-.127.127-.275-1.106a1.27 1.27 0 0 0-1.525-.929l-5.664 1.382a1.278 1.278 0 0 0-.647 2.145c.327.333.81.459 1.257.33zm8.776-.17a8.31 8.31 0 0 1 5.923-2.458h14.455a1.77 1.77 0 0 1 1.767 1.773 1.77 1.77 0 0 1-1.767 1.772h-9.076c-.702 0-1.27.571-1.27 1.275 0 .705.568 1.276 1.27 1.276h9.076a4.28 4.28 0 0 0 3.234-1.474l9.152-9.304a1.794 1.794 0 0 1 2.542 0 1.807 1.807 0 0 1 0 2.55l-11.882 11.895a6.533 6.533 0 0 1-4.658 1.933H261.96a1.27 1.27 0 0 0-.9.372l-1.429 1.434-2.435-9.83 1.205-1.213zm-5.827 11.855a1.277 1.277 0 0 1 .481-1.336c.416-.306.974-.33 1.414-.06a1.277 1.277 0 0 1-.675 2.365 1.277 1.277 0 0 1-1.22-.97zm4.113-25.64a1.278 1.278 0 0 1 .107-1.801l10.27-9.181c.417-.34 1-.38 1.46-.102l5.913 3.325 7.906-7.916h-1.932c-.702 0-1.27-.57-1.27-1.275 0-.704.568-1.275 1.27-1.275h4.998a1.27 1.27 0 0 1 1.271 1.275v5.014c0 .704-.569 1.275-1.27 1.275-.703 0-1.272-.57-1.272-1.275v-1.933l-8.572 8.594a1.268 1.268 0 0 1-1.526.21l-5.974-3.367-9.594 8.569a1.269 1.269 0 0 1-1.795-.107l.01-.03zm27.507-6.555v11.43c0 .705-.57 1.275-1.271 1.275-.702 0-1.271-.57-1.271-1.275v-11.41c0-.704.569-1.275 1.27-1.275.703 0 1.272.571 1.272 1.275v-.02zm-8.455 4.04c.702 0 1.27.57 1.27 1.275v6.12c0 .705-.568 1.276-1.27 1.276a1.273 1.273 0 0 1-1.271-1.276v-6.12c0-.704.569-1.275 1.27-1.275zm-7.175-1.673c.703 0 1.272.57 1.272 1.275v7.788c0 .456-.243.877-.636 1.105a1.268 1.268 0 0 1-1.271 0 1.276 1.276 0 0 1-.636-1.105v-7.798c.006-.7.573-1.265 1.271-1.265zm-7.174 5.763c.702 0 1.271.571 1.271 1.275v2.04c0 .705-.569 1.276-1.27 1.276a1.273 1.273 0 0 1-1.272-1.275v-2.04c0-.705.57-1.276 1.271-1.276z" transform="translate(-248 -644)"/></svg>