<svg width="60" height="60" viewBox="0 0 60 60" fill="none" xmlns="http://www.w3.org/2000/svg">
<path fill-rule="evenodd" clip-rule="evenodd" d="M6.08147 48.3722H19.2229C21.4678 48.3786 23.6036 49.37 25.0947 51.0978L25.28 51.3049C25.5181 51.5575 25.7747 51.7908 26.0478 52.0026C26.1419 52.0765 26.236 52.1425 26.3237 52.204L26.3238 52.2041L26.3707 52.237C26.6098 52.4012 26.8592 52.5487 27.1173 52.6786L27.2655 52.7494C27.4032 52.8203 27.5409 52.8803 27.6891 52.9348C27.8711 53.0053 28.0567 53.0653 28.2451 53.1147L28.2496 53.116L28.2497 53.116C28.3814 53.154 28.5491 53.2023 28.7428 53.24C29.0311 53.2986 29.323 53.3368 29.6164 53.3545L30.0241 53.36C30.4615 53.3588 30.8978 53.3131 31.3266 53.2237C31.4837 53.1933 31.6181 53.1536 31.6959 53.1306L31.7131 53.1256C31.9213 53.0723 32.1264 53.0068 32.3273 52.9293L32.4279 52.8912L32.7614 52.744L32.8832 52.684C33.1582 52.5469 33.4236 52.3903 33.6774 52.2152L33.9474 52.019C34.2546 51.783 34.5415 51.5204 34.8052 51.234L34.8528 51.185L34.9587 51.065C36.4351 49.3509 38.5577 48.3754 40.7829 48.3886H53.9667C54.5002 48.3886 55.0117 48.1692 55.3875 47.7793C55.7633 47.3893 55.9723 46.861 55.9681 46.3117V13.9648C55.9536 12.8375 55.0617 11.9315 53.9667 11.9316H50.0168V7.85415C50.0196 7.49083 49.8814 7.1414 49.6329 6.88346C49.3844 6.62553 49.0461 6.48046 48.6932 6.48047H40.4546C36.5835 6.48813 32.858 8.00092 30.0241 10.716C27.1901 8.00092 23.4647 6.48813 19.5935 6.48047H11.355C10.6239 6.48047 10.0313 7.0906 10.0313 7.84324V11.9316H6.08147C4.98639 11.9315 4.09456 12.8375 4.08008 13.9648V46.3117C4.08008 46.8582 4.29094 47.3823 4.66627 47.7687C5.04161 48.1551 5.55067 48.3722 6.08147 48.3722ZM12.6786 9.20599H19.5935C23.0283 9.20848 26.3149 10.6465 28.7004 13.1907V16.1888C28.7004 16.9415 29.293 17.5516 30.0241 17.5516C30.7551 17.5516 31.3477 16.9415 31.3477 16.1888V13.1907C33.7332 10.6465 37.0198 9.20848 40.4546 9.20599H47.3695V39.4923H40.4546C37.1754 39.4945 33.9833 40.5798 31.3477 42.5885V37.3282C31.3477 36.5756 30.7551 35.9655 30.0241 35.9655C29.293 35.9655 28.7004 36.5756 28.7004 37.3282V42.5885C26.0648 40.5798 22.8727 39.4945 19.5935 39.4923H12.6786V9.20599ZM10.0313 14.657H6.72744V45.6466H19.2229C22.2276 45.6482 25.0885 46.9712 27.0855 49.2824L27.1861 49.3969C27.3322 49.5511 27.4897 49.6933 27.6574 49.8221L27.8427 49.9584C27.9901 50.0597 28.144 50.1508 28.3033 50.2309L28.3986 50.28L28.6369 50.3836C28.7427 50.424 28.8505 50.4585 28.9598 50.4871C28.9898 50.4959 29.0182 50.5055 29.0458 50.5149C29.1207 50.5402 29.1896 50.5634 29.2669 50.5634C29.4416 50.5996 29.6185 50.6232 29.7964 50.6343H30.0241C30.2871 50.6356 30.5496 50.6101 30.8077 50.558L31.0248 50.5035C31.1611 50.4696 31.2955 50.4277 31.4272 50.3781L31.6443 50.2854L31.7184 50.2473C31.889 50.1632 32.0535 50.0666 32.2108 49.9584L32.3696 49.8439C32.5589 49.7056 32.736 49.5506 32.8991 49.3806L33.9051 50.2691L32.9415 49.3315L32.9838 49.2824C34.9684 46.9695 37.8278 45.6536 40.8253 45.6738H53.3207V14.657H50.0168V40.8768C50.0168 41.6295 49.4242 42.2396 48.6932 42.2396H40.4493C36.8433 42.2445 33.4099 43.8305 31.0089 46.6005C30.7578 46.8901 30.3985 47.0557 30.0214 47.0557C29.6443 47.0557 29.2851 46.8901 29.034 46.6005C26.6334 43.8299 23.1998 42.2438 19.5935 42.2396H11.355C10.624 42.2396 10.0313 41.6295 10.0313 40.8768V14.657Z" fill="url(#paint0_linear_236_904)"/>
<path fill-rule="evenodd" clip-rule="evenodd" d="M25.4388 34.3955C25.0293 34.6389 24.5247 34.6389 24.1152 34.3955C23.6982 34.1477 23.4447 33.6864 23.4533 33.1908V19.1106C23.4524 18.6232 23.7043 18.1725 24.114 17.9284C24.5238 17.6843 25.0289 17.684 25.4388 17.9277L37.3254 24.9487C37.7349 25.1922 37.9872 25.642 37.9872 26.1289C37.9872 26.6157 37.7349 27.0656 37.3254 27.309L25.4388 34.3955ZM34.0162 26.1534L26.1007 21.4491V30.8577L34.0162 26.1534Z" fill="url(#paint1_linear_236_904)"/>
<defs>
<linearGradient id="paint0_linear_236_904" x1="29.8747" y1="-10.089" x2="-11.3303" y2="34.8145" gradientUnits="userSpaceOnUse">
<stop stop-color="#4A2FEE"/>
<stop offset="0.275663" stop-color="#9F2AE6"/>
<stop offset="1" stop-color="#0F73BB"/>
</linearGradient>
<linearGradient id="paint1_linear_236_904" x1="30.6783" y1="11.7956" x2="16.0219" y2="24.2551" gradientUnits="userSpaceOnUse">
<stop stop-color="#4A2FEE"/>
<stop offset="0.275663" stop-color="#9F2AE6"/>
<stop offset="1" stop-color="#0F73BB"/>
</linearGradient>
</defs>
</svg>
