<svg xmlns="http://www.w3.org/2000/svg" width="57" height="50" viewBox="0 0 57 50"><defs><linearGradient id="a" x1="93.136%" x2="4.926%" y1="8.76%" y2="95.609%"><stop offset="0%" stop-color="#EE582F"/><stop offset="27.566%" stop-color="#E62A44"/><stop offset="100%" stop-color="#BB0F80"/></linearGradient></defs><g fill="url(#a)"><path d="M2.199 44.68h14.436a8.662 8.662 0 0 1 6.45 2.907l.204.221c.261.27.543.518.843.744.122.093.244.175.355.25.262.175.536.333.82.471l.163.076a5.74 5.74 0 0 0 1.075.389c.146.041.332.093.547.134.317.063.638.103.96.122L28.5 50c.48-.001.96-.05 1.43-.145.187-.035.344-.082.425-.105.23-.057.454-.127.675-.21l.11-.04.367-.157.134-.064c.302-.146.593-.313.872-.5l.297-.21a7.38 7.38 0 0 0 .942-.836l.052-.053.117-.128a8.488 8.488 0 0 1 6.398-2.854H54.8a2.199 2.199 0 0 0 2.2-2.215v-34.5a2.198 2.198 0 0 0-2.199-2.169h-4.339V1.465A1.453 1.453 0 0 0 49.008 0h-9.05A16.871 16.871 0 0 0 28.5 4.517 16.871 16.871 0 0 0 17.042 0h-9.05c-.803 0-1.454.65-1.454 1.453v4.361h-4.34A2.198 2.198 0 0 0 0 7.983v34.5a2.197 2.197 0 0 0 2.199 2.197zM9.446 2.907h7.596a13.921 13.921 0 0 1 10.004 4.25v3.198a1.454 1.454 0 0 0 2.908 0V7.157a13.921 13.921 0 0 1 10.004-4.25h7.596v32.302h-7.596a16.837 16.837 0 0 0-10.004 3.303v-5.61a1.454 1.454 0 0 0-2.908 0v5.61a16.837 16.837 0 0 0-10.004-3.303H9.446V2.907zM2.908 8.721h3.63v27.965c0 .803.65 1.454 1.454 1.454h9.05a13.921 13.921 0 0 1 10.37 4.65 1.454 1.454 0 0 0 2.17 0 13.927 13.927 0 0 1 10.37-4.65h9.056c.803 0 1.454-.651 1.454-1.454V8.721h3.63v33.081H40.365a11.396 11.396 0 0 0-8.614 3.85l-.046.051 1.058 1-1.105-.947a4.38 4.38 0 0 1-.581.494l-.175.122a4.363 4.363 0 0 1-.54.308l-.082.04-.239.1a4.073 4.073 0 0 1-.442.133l-.238.059a4.37 4.37 0 0 1-.861.081h-.25a4.26 4.26 0 0 1-.582-.076c-.116 0-.215-.046-.337-.081a3.49 3.49 0 0 1-.355-.11l-.262-.11-.104-.053a4.369 4.369 0 0 1-.506-.29l-.204-.146a4.397 4.397 0 0 1-.518-.454l-.11-.122a11.57 11.57 0 0 0-8.637-3.878H2.908V8.721z"/><path d="M22.009 29.773c.45.26 1.004.26 1.454 0l13.058-7.558a1.453 1.453 0 0 0 0-2.517l-13.058-7.489a1.455 1.455 0 0 0-2.181 1.262v15.017c-.01.529.269 1.021.727 1.285zm2.181-13.808l8.696 5.018L24.19 26V15.965z"/></g></svg>